<svg width="350" height="262" viewBox="0 0 350 262" fill="none" xmlns="http://www.w3.org/2000/svg">
<path d="M260.226 63.3267C280.793 86.5137 293.282 118.74 288.391 149.874C283.544 180.965 261.318 210.92 232.148 224.107C202.935 237.338 166.736 233.801 141.889 217.645C116.999 201.488 103.463 172.712 103.55 147.996C103.637 123.281 117.349 102.627 132.763 80.6623C148.134 58.6543 165.207 35.2927 188.089 30.664C210.97 26.0353 239.615 40.1397 260.226 63.3267Z" fill="#2E121D"/>
<path d="M151.017 89H148.381L152.398 77.3636H155.568L159.58 89H156.943L154.028 80.0227H153.938L151.017 89ZM150.852 84.4261H157.08V86.3466H150.852V84.4261ZM167.058 83.9545V89H164.638V80.2727H166.945V81.8125H167.047C167.24 81.3049 167.564 80.9034 168.018 80.608C168.473 80.3087 169.024 80.1591 169.672 80.1591C170.278 80.1591 170.806 80.2917 171.257 80.5568C171.708 80.822 172.058 81.2008 172.308 81.6932C172.558 82.1818 172.683 82.7652 172.683 83.4432V89H170.263V83.875C170.267 83.3409 170.13 82.9242 169.854 82.625C169.577 82.322 169.196 82.1705 168.712 82.1705C168.386 82.1705 168.098 82.2405 167.848 82.3807C167.602 82.5208 167.409 82.7254 167.268 82.9943C167.132 83.2595 167.062 83.5795 167.058 83.9545ZM178.568 89.1705C177.67 89.1705 176.898 88.9886 176.25 88.625C175.606 88.2576 175.11 87.7386 174.761 87.0682C174.413 86.3939 174.239 85.5966 174.239 84.6761C174.239 83.7784 174.413 82.9905 174.761 82.3125C175.11 81.6345 175.6 81.1061 176.233 80.7273C176.869 80.3485 177.616 80.1591 178.472 80.1591C179.047 80.1591 179.583 80.2519 180.08 80.4375C180.58 80.6193 181.015 80.8939 181.386 81.2614C181.761 81.6288 182.053 82.0909 182.261 82.6477C182.47 83.2008 182.574 83.8485 182.574 84.5909V85.2557H175.205V83.7557H180.295C180.295 83.4072 180.22 83.0985 180.068 82.8295C179.917 82.5606 179.706 82.3504 179.438 82.1989C179.172 82.0436 178.864 81.9659 178.511 81.9659C178.144 81.9659 177.818 82.0511 177.534 82.2216C177.254 82.3883 177.034 82.6136 176.875 82.8977C176.716 83.178 176.634 83.4905 176.631 83.8352V85.2614C176.631 85.6932 176.71 86.0663 176.869 86.3807C177.032 86.6951 177.261 86.9375 177.557 87.108C177.852 87.2784 178.203 87.3636 178.608 87.3636C178.877 87.3636 179.123 87.3258 179.347 87.25C179.57 87.1742 179.761 87.0606 179.92 86.9091C180.08 86.7576 180.201 86.572 180.284 86.3523L182.523 86.5C182.409 87.0379 182.176 87.5076 181.824 87.9091C181.475 88.3068 181.025 88.6174 180.472 88.8409C179.922 89.0606 179.288 89.1705 178.568 89.1705ZM185.812 89L183.438 80.2727H185.886L187.239 86.1364H187.318L188.727 80.2727H191.131L192.562 86.1023H192.636L193.966 80.2727H196.409L194.04 89H191.477L189.977 83.5114H189.869L188.369 89H185.812ZM207.761 80.7102C207.716 80.2519 207.521 79.8958 207.176 79.642C206.831 79.3883 206.364 79.2614 205.773 79.2614C205.371 79.2614 205.032 79.3182 204.756 79.4318C204.479 79.5417 204.267 79.6951 204.119 79.892C203.975 80.089 203.903 80.3125 203.903 80.5625C203.896 80.7708 203.939 80.9527 204.034 81.108C204.133 81.2633 204.267 81.3977 204.438 81.5114C204.608 81.6212 204.805 81.7178 205.028 81.8011C205.252 81.8807 205.491 81.9489 205.744 82.0057L206.79 82.2557C207.297 82.3693 207.763 82.5208 208.188 82.7102C208.612 82.8996 208.979 83.1326 209.29 83.4091C209.6 83.6856 209.841 84.0114 210.011 84.3864C210.186 84.7614 210.275 85.1913 210.278 85.6761C210.275 86.3883 210.093 87.0057 209.733 87.5284C209.377 88.0473 208.862 88.4508 208.188 88.7386C207.517 89.0227 206.708 89.1648 205.761 89.1648C204.822 89.1648 204.004 89.0208 203.307 88.733C202.614 88.4451 202.072 88.0189 201.682 87.4545C201.295 86.8864 201.093 86.1837 201.074 85.3466H203.455C203.481 85.7367 203.593 86.0625 203.79 86.3239C203.991 86.5814 204.258 86.7765 204.591 86.9091C204.928 87.0379 205.309 87.1023 205.733 87.1023C206.15 87.1023 206.511 87.0417 206.818 86.9205C207.129 86.7992 207.369 86.6307 207.54 86.4148C207.71 86.1989 207.795 85.9508 207.795 85.6705C207.795 85.4091 207.718 85.1894 207.562 85.0114C207.411 84.8333 207.188 84.6818 206.892 84.5568C206.6 84.4318 206.242 84.3182 205.818 84.2159L204.551 83.8977C203.57 83.6591 202.795 83.286 202.227 82.7784C201.659 82.2708 201.377 81.5871 201.381 80.7273C201.377 80.0227 201.564 79.4072 201.943 78.8807C202.326 78.3542 202.85 77.9432 203.517 77.6477C204.184 77.3523 204.941 77.2045 205.79 77.2045C206.653 77.2045 207.407 77.3523 208.051 77.6477C208.699 77.9432 209.203 78.3542 209.562 78.8807C209.922 79.4072 210.108 80.017 210.119 80.7102H207.761ZM215.831 89.1705C214.948 89.1705 214.185 88.983 213.541 88.608C212.901 88.2292 212.407 87.7027 212.058 87.0284C211.71 86.3504 211.536 85.5644 211.536 84.6705C211.536 83.7689 211.71 82.9811 212.058 82.3068C212.407 81.6288 212.901 81.1023 213.541 80.7273C214.185 80.3485 214.948 80.1591 215.831 80.1591C216.714 80.1591 217.475 80.3485 218.115 80.7273C218.759 81.1023 219.255 81.6288 219.604 82.3068C219.952 82.9811 220.126 83.7689 220.126 84.6705C220.126 85.5644 219.952 86.3504 219.604 87.0284C219.255 87.7027 218.759 88.2292 218.115 88.608C217.475 88.983 216.714 89.1705 215.831 89.1705ZM215.842 87.2955C216.244 87.2955 216.579 87.1818 216.848 86.9545C217.117 86.7235 217.32 86.4091 217.456 86.0114C217.596 85.6136 217.666 85.161 217.666 84.6534C217.666 84.1458 217.596 83.6932 217.456 83.2955C217.32 82.8977 217.117 82.5833 216.848 82.3523C216.579 82.1212 216.244 82.0057 215.842 82.0057C215.437 82.0057 215.096 82.1212 214.82 82.3523C214.547 82.5833 214.34 82.8977 214.2 83.2955C214.064 83.6932 213.996 84.1458 213.996 84.6534C213.996 85.161 214.064 85.6136 214.2 86.0114C214.34 86.4091 214.547 86.7235 214.82 86.9545C215.096 87.1818 215.437 87.2955 215.842 87.2955ZM225.643 89.1705C224.75 89.1705 223.981 88.9811 223.337 88.6023C222.696 88.2197 222.204 87.6894 221.859 87.0114C221.518 86.3333 221.348 85.553 221.348 84.6705C221.348 83.7765 221.52 82.9924 221.865 82.3182C222.214 81.6402 222.708 81.1117 223.348 80.733C223.988 80.3504 224.75 80.1591 225.632 80.1591C226.393 80.1591 227.06 80.2973 227.632 80.5739C228.204 80.8504 228.657 81.2386 228.99 81.7386C229.323 82.2386 229.507 82.8258 229.541 83.5H227.257C227.193 83.0644 227.022 82.714 226.746 82.4489C226.473 82.1799 226.115 82.0455 225.672 82.0455C225.297 82.0455 224.969 82.1477 224.689 82.3523C224.412 82.553 224.196 82.8466 224.041 83.233C223.886 83.6193 223.808 84.0871 223.808 84.6364C223.808 85.1932 223.884 85.6667 224.036 86.0568C224.191 86.447 224.409 86.7443 224.689 86.9489C224.969 87.1534 225.297 87.2557 225.672 87.2557C225.948 87.2557 226.196 87.1989 226.416 87.0852C226.64 86.9716 226.823 86.8068 226.967 86.5909C227.115 86.3712 227.212 86.108 227.257 85.8011H229.541C229.503 86.4678 229.321 87.0549 228.996 87.5625C228.674 88.0663 228.229 88.4602 227.661 88.7443C227.092 89.0284 226.42 89.1705 225.643 89.1705ZM231.091 89V80.2727H233.511V89H231.091ZM232.307 79.1477C231.947 79.1477 231.638 79.0284 231.381 78.7898C231.127 78.5473 231 78.2576 231 77.9205C231 77.5871 231.127 77.3011 231.381 77.0625C231.638 76.8201 231.947 76.6989 232.307 76.6989C232.667 76.6989 232.973 76.8201 233.227 77.0625C233.485 77.3011 233.614 77.5871 233.614 77.9205C233.614 78.2576 233.485 78.5473 233.227 78.7898C232.973 79.0284 232.667 79.1477 232.307 79.1477ZM237.939 89.1648C237.382 89.1648 236.886 89.0682 236.45 88.875C236.015 88.678 235.67 88.3883 235.416 88.0057C235.166 87.6193 235.041 87.1383 235.041 86.5625C235.041 86.0777 235.13 85.6705 235.308 85.3409C235.486 85.0114 235.729 84.7462 236.036 84.5455C236.342 84.3447 236.691 84.1932 237.081 84.0909C237.475 83.9886 237.888 83.9167 238.32 83.875C238.827 83.822 239.236 83.7727 239.547 83.7273C239.857 83.678 240.083 83.6061 240.223 83.5114C240.363 83.4167 240.433 83.2765 240.433 83.0909V83.0568C240.433 82.697 240.32 82.4186 240.092 82.2216C239.869 82.0246 239.551 81.9261 239.138 81.9261C238.702 81.9261 238.356 82.0227 238.098 82.2159C237.84 82.4053 237.67 82.6439 237.587 82.9318L235.348 82.75C235.462 82.2197 235.685 81.7614 236.018 81.375C236.352 80.9848 236.782 80.6856 237.308 80.4773C237.839 80.2652 238.452 80.1591 239.149 80.1591C239.634 80.1591 240.098 80.2159 240.541 80.3295C240.988 80.4432 241.384 80.6193 241.729 80.858C242.077 81.0966 242.352 81.4034 242.553 81.7784C242.753 82.1496 242.854 82.5947 242.854 83.1136V89H240.558V87.7898H240.49C240.35 88.0625 240.162 88.303 239.928 88.5114C239.693 88.7159 239.411 88.8769 239.081 88.9943C238.751 89.108 238.371 89.1648 237.939 89.1648ZM238.632 87.4943C238.988 87.4943 239.303 87.4242 239.575 87.2841C239.848 87.1402 240.062 86.947 240.217 86.7045C240.373 86.4621 240.45 86.1875 240.45 85.8807V84.9545C240.375 85.0038 240.27 85.0492 240.138 85.0909C240.009 85.1288 239.863 85.1648 239.7 85.1989C239.537 85.2292 239.375 85.2576 239.212 85.2841C239.049 85.3068 238.901 85.3277 238.768 85.3466C238.484 85.3883 238.236 85.4545 238.024 85.5455C237.812 85.6364 237.647 85.7595 237.53 85.9148C237.412 86.0663 237.354 86.2557 237.354 86.483C237.354 86.8125 237.473 87.0644 237.712 87.2386C237.954 87.4091 238.261 87.4943 238.632 87.4943ZM247.152 77.3636V89H244.732V77.3636H247.152ZM149.011 96.3636H152.045L155.25 104.182H155.386L158.591 96.3636H161.625V108H159.239V100.426H159.142L156.131 107.943H154.506L151.494 100.398H151.398V108H149.011V96.3636ZM167.584 108.17C166.686 108.17 165.913 107.989 165.266 107.625C164.622 107.258 164.125 106.739 163.777 106.068C163.429 105.394 163.254 104.597 163.254 103.676C163.254 102.778 163.429 101.991 163.777 101.312C164.125 100.634 164.616 100.106 165.249 99.7273C165.885 99.3485 166.631 99.1591 167.487 99.1591C168.063 99.1591 168.599 99.2519 169.095 99.4375C169.595 99.6193 170.031 99.8939 170.402 100.261C170.777 100.629 171.069 101.091 171.277 101.648C171.485 102.201 171.589 102.848 171.589 103.591V104.256H164.22V102.756H169.311C169.311 102.407 169.235 102.098 169.084 101.83C168.932 101.561 168.722 101.35 168.453 101.199C168.188 101.044 167.879 100.966 167.527 100.966C167.16 100.966 166.834 101.051 166.55 101.222C166.269 101.388 166.05 101.614 165.891 101.898C165.732 102.178 165.65 102.491 165.646 102.835V104.261C165.646 104.693 165.726 105.066 165.885 105.381C166.048 105.695 166.277 105.938 166.572 106.108C166.868 106.278 167.218 106.364 167.624 106.364C167.893 106.364 168.139 106.326 168.362 106.25C168.586 106.174 168.777 106.061 168.936 105.909C169.095 105.758 169.216 105.572 169.3 105.352L171.538 105.5C171.425 106.038 171.192 106.508 170.839 106.909C170.491 107.307 170.04 107.617 169.487 107.841C168.938 108.061 168.304 108.17 167.584 108.17ZM176.385 108.142C175.722 108.142 175.122 107.972 174.584 107.631C174.05 107.286 173.625 106.78 173.311 106.114C173 105.443 172.845 104.621 172.845 103.648C172.845 102.648 173.006 101.816 173.328 101.153C173.65 100.487 174.078 99.9886 174.612 99.6591C175.15 99.3258 175.739 99.1591 176.379 99.1591C176.868 99.1591 177.275 99.2424 177.601 99.4091C177.93 99.572 178.196 99.7765 178.396 100.023C178.601 100.265 178.756 100.504 178.862 100.739H178.936V96.3636H181.351V108H178.964V106.602H178.862C178.749 106.845 178.588 107.085 178.379 107.324C178.175 107.559 177.908 107.754 177.578 107.909C177.252 108.064 176.855 108.142 176.385 108.142ZM177.152 106.216C177.542 106.216 177.872 106.11 178.141 105.898C178.413 105.682 178.622 105.381 178.766 104.994C178.913 104.608 178.987 104.155 178.987 103.636C178.987 103.117 178.915 102.667 178.771 102.284C178.627 101.902 178.419 101.606 178.146 101.398C177.874 101.189 177.542 101.085 177.152 101.085C176.754 101.085 176.419 101.193 176.146 101.409C175.874 101.625 175.667 101.924 175.527 102.307C175.387 102.689 175.317 103.133 175.317 103.636C175.317 104.144 175.387 104.593 175.527 104.983C175.671 105.369 175.877 105.672 176.146 105.892C176.419 106.108 176.754 106.216 177.152 106.216ZM183.341 108V99.2727H185.761V108H183.341ZM184.557 98.1477C184.197 98.1477 183.888 98.0284 183.631 97.7898C183.377 97.5473 183.25 97.2576 183.25 96.9205C183.25 96.5871 183.377 96.3011 183.631 96.0625C183.888 95.8201 184.197 95.6989 184.557 95.6989C184.917 95.6989 185.223 95.8201 185.477 96.0625C185.735 96.3011 185.864 96.5871 185.864 96.9205C185.864 97.2576 185.735 97.5473 185.477 97.7898C185.223 98.0284 184.917 98.1477 184.557 98.1477ZM190.189 108.165C189.632 108.165 189.136 108.068 188.7 107.875C188.265 107.678 187.92 107.388 187.666 107.006C187.416 106.619 187.291 106.138 187.291 105.562C187.291 105.078 187.38 104.67 187.558 104.341C187.736 104.011 187.979 103.746 188.286 103.545C188.592 103.345 188.941 103.193 189.331 103.091C189.725 102.989 190.138 102.917 190.57 102.875C191.077 102.822 191.486 102.773 191.797 102.727C192.107 102.678 192.333 102.606 192.473 102.511C192.613 102.417 192.683 102.277 192.683 102.091V102.057C192.683 101.697 192.57 101.419 192.342 101.222C192.119 101.025 191.801 100.926 191.388 100.926C190.952 100.926 190.606 101.023 190.348 101.216C190.09 101.405 189.92 101.644 189.837 101.932L187.598 101.75C187.712 101.22 187.935 100.761 188.268 100.375C188.602 99.9848 189.032 99.6856 189.558 99.4773C190.089 99.2652 190.702 99.1591 191.399 99.1591C191.884 99.1591 192.348 99.2159 192.791 99.3295C193.238 99.4432 193.634 99.6193 193.979 99.858C194.327 100.097 194.602 100.403 194.803 100.778C195.003 101.15 195.104 101.595 195.104 102.114V108H192.808V106.79H192.74C192.6 107.062 192.412 107.303 192.178 107.511C191.943 107.716 191.661 107.877 191.331 107.994C191.001 108.108 190.621 108.165 190.189 108.165ZM190.882 106.494C191.238 106.494 191.553 106.424 191.825 106.284C192.098 106.14 192.312 105.947 192.467 105.705C192.623 105.462 192.7 105.187 192.7 104.881V103.955C192.625 104.004 192.52 104.049 192.388 104.091C192.259 104.129 192.113 104.165 191.95 104.199C191.787 104.229 191.625 104.258 191.462 104.284C191.299 104.307 191.151 104.328 191.018 104.347C190.734 104.388 190.486 104.455 190.274 104.545C190.062 104.636 189.897 104.759 189.78 104.915C189.662 105.066 189.604 105.256 189.604 105.483C189.604 105.812 189.723 106.064 189.962 106.239C190.204 106.409 190.511 106.494 190.882 106.494ZM200.73 108V96.3636H205.321C206.204 96.3636 206.955 96.5322 207.577 96.8693C208.198 97.2027 208.671 97.6667 208.997 98.2614C209.327 98.8523 209.491 99.5341 209.491 100.307C209.491 101.08 209.325 101.761 208.991 102.352C208.658 102.943 208.175 103.403 207.543 103.733C206.914 104.062 206.152 104.227 205.259 104.227H202.332V102.256H204.861C205.334 102.256 205.724 102.174 206.031 102.011C206.342 101.845 206.573 101.616 206.724 101.324C206.88 101.028 206.957 100.689 206.957 100.307C206.957 99.9205 206.88 99.5833 206.724 99.2955C206.573 99.0038 206.342 98.7784 206.031 98.6193C205.721 98.4564 205.327 98.375 204.849 98.375H203.19V108H200.73ZM213.464 96.3636V108H211.044V96.3636H213.464ZM217.892 108.165C217.335 108.165 216.839 108.068 216.403 107.875C215.968 107.678 215.623 107.388 215.369 107.006C215.119 106.619 214.994 106.138 214.994 105.562C214.994 105.078 215.083 104.67 215.261 104.341C215.439 104.011 215.682 103.746 215.989 103.545C216.295 103.345 216.644 103.193 217.034 103.091C217.428 102.989 217.841 102.917 218.273 102.875C218.78 102.822 219.189 102.773 219.5 102.727C219.811 102.678 220.036 102.606 220.176 102.511C220.316 102.417 220.386 102.277 220.386 102.091V102.057C220.386 101.697 220.273 101.419 220.045 101.222C219.822 101.025 219.504 100.926 219.091 100.926C218.655 100.926 218.309 101.023 218.051 101.216C217.794 101.405 217.623 101.644 217.54 101.932L215.301 101.75C215.415 101.22 215.638 100.761 215.972 100.375C216.305 99.9848 216.735 99.6856 217.261 99.4773C217.792 99.2652 218.405 99.1591 219.102 99.1591C219.587 99.1591 220.051 99.2159 220.494 99.3295C220.941 99.4432 221.337 99.6193 221.682 99.858C222.03 100.097 222.305 100.403 222.506 100.778C222.706 101.15 222.807 101.595 222.807 102.114V108H220.511V106.79H220.443C220.303 107.062 220.116 107.303 219.881 107.511C219.646 107.716 219.364 107.877 219.034 107.994C218.705 108.108 218.324 108.165 217.892 108.165ZM218.585 106.494C218.941 106.494 219.256 106.424 219.528 106.284C219.801 106.14 220.015 105.947 220.17 105.705C220.326 105.462 220.403 105.187 220.403 104.881V103.955C220.328 104.004 220.223 104.049 220.091 104.091C219.962 104.129 219.816 104.165 219.653 104.199C219.491 104.229 219.328 104.258 219.165 104.284C219.002 104.307 218.854 104.328 218.722 104.347C218.438 104.388 218.189 104.455 217.977 104.545C217.765 104.636 217.6 104.759 217.483 104.915C217.366 105.066 217.307 105.256 217.307 105.483C217.307 105.812 217.426 106.064 217.665 106.239C217.907 106.409 218.214 106.494 218.585 106.494ZM229.327 99.2727V101.091H224.071V99.2727H229.327ZM225.264 97.1818H227.685V105.318C227.685 105.542 227.719 105.716 227.787 105.841C227.855 105.962 227.95 106.047 228.071 106.097C228.196 106.146 228.34 106.17 228.503 106.17C228.616 106.17 228.73 106.161 228.844 106.142C228.957 106.119 229.045 106.102 229.105 106.091L229.486 107.892C229.365 107.93 229.194 107.973 228.974 108.023C228.755 108.076 228.488 108.108 228.173 108.119C227.59 108.142 227.079 108.064 226.639 107.886C226.204 107.708 225.865 107.432 225.622 107.057C225.38 106.682 225.26 106.208 225.264 105.636V97.1818ZM235.597 99.2727V101.091H230.21V99.2727H235.597ZM231.443 108V98.642C231.443 98.0095 231.566 97.4848 231.812 97.0682C232.062 96.6515 232.403 96.339 232.835 96.1307C233.267 95.9223 233.758 95.8182 234.307 95.8182C234.678 95.8182 235.017 95.8466 235.324 95.9034C235.634 95.9602 235.866 96.0114 236.017 96.0568L235.585 97.875C235.491 97.8447 235.373 97.8163 235.233 97.7898C235.097 97.7633 234.956 97.75 234.812 97.75C234.456 97.75 234.208 97.8333 234.068 98C233.928 98.1629 233.858 98.392 233.858 98.6875V108H231.443ZM240.706 108.17C239.823 108.17 239.06 107.983 238.416 107.608C237.776 107.229 237.282 106.703 236.933 106.028C236.585 105.35 236.411 104.564 236.411 103.67C236.411 102.769 236.585 101.981 236.933 101.307C237.282 100.629 237.776 100.102 238.416 99.7273C239.06 99.3485 239.823 99.1591 240.706 99.1591C241.589 99.1591 242.35 99.3485 242.99 99.7273C243.634 100.102 244.13 100.629 244.479 101.307C244.827 101.981 245.001 102.769 245.001 103.67C245.001 104.564 244.827 105.35 244.479 106.028C244.13 106.703 243.634 107.229 242.99 107.608C242.35 107.983 241.589 108.17 240.706 108.17ZM240.717 106.295C241.119 106.295 241.454 106.182 241.723 105.955C241.992 105.723 242.195 105.409 242.331 105.011C242.471 104.614 242.541 104.161 242.541 103.653C242.541 103.146 242.471 102.693 242.331 102.295C242.195 101.898 241.992 101.583 241.723 101.352C241.454 101.121 241.119 101.006 240.717 101.006C240.312 101.006 239.971 101.121 239.695 101.352C239.422 101.583 239.215 101.898 239.075 102.295C238.939 102.693 238.871 103.146 238.871 103.653C238.871 104.161 238.939 104.614 239.075 105.011C239.215 105.409 239.422 105.723 239.695 105.955C239.971 106.182 240.312 106.295 240.717 106.295ZM246.575 108V99.2727H248.922V100.795H249.013C249.172 100.254 249.439 99.8447 249.814 99.5682C250.189 99.2879 250.621 99.1477 251.109 99.1477C251.231 99.1477 251.361 99.1553 251.501 99.1705C251.642 99.1856 251.765 99.2064 251.871 99.233V101.381C251.757 101.347 251.6 101.316 251.399 101.29C251.198 101.263 251.015 101.25 250.848 101.25C250.492 101.25 250.174 101.328 249.893 101.483C249.617 101.634 249.397 101.847 249.234 102.119C249.075 102.392 248.996 102.706 248.996 103.062V108H246.575ZM253.122 108V99.2727H255.429V100.812H255.531C255.713 100.301 256.016 99.8977 256.44 99.6023C256.865 99.3068 257.372 99.1591 257.963 99.1591C258.562 99.1591 259.071 99.3087 259.491 99.608C259.912 99.9034 260.192 100.305 260.332 100.812H260.423C260.601 100.312 260.923 99.9129 261.389 99.6136C261.859 99.3106 262.414 99.1591 263.054 99.1591C263.868 99.1591 264.529 99.4186 265.037 99.9375C265.548 100.453 265.804 101.184 265.804 102.131V108H263.389V102.608C263.389 102.123 263.26 101.759 263.003 101.517C262.745 101.275 262.423 101.153 262.037 101.153C261.598 101.153 261.255 101.294 261.009 101.574C260.762 101.85 260.639 102.216 260.639 102.67V108H258.293V102.557C258.293 102.129 258.17 101.788 257.923 101.534C257.681 101.28 257.361 101.153 256.963 101.153C256.694 101.153 256.452 101.222 256.236 101.358C256.024 101.491 255.855 101.678 255.73 101.92C255.605 102.159 255.543 102.439 255.543 102.761V108H253.122ZM153.608 118.273V120.091H148.352V118.273H153.608ZM149.545 116.182H151.966V124.318C151.966 124.542 152 124.716 152.068 124.841C152.136 124.962 152.231 125.047 152.352 125.097C152.477 125.146 152.621 125.17 152.784 125.17C152.898 125.17 153.011 125.161 153.125 125.142C153.239 125.119 153.326 125.102 153.386 125.091L153.767 126.892C153.646 126.93 153.475 126.973 153.256 127.023C153.036 127.076 152.769 127.108 152.455 127.119C151.871 127.142 151.36 127.064 150.92 126.886C150.485 126.708 150.146 126.432 149.903 126.057C149.661 125.682 149.542 125.208 149.545 124.636V116.182ZM157.793 121.955V127H155.372V115.364H157.724V119.812H157.827C158.024 119.297 158.342 118.894 158.781 118.602C159.221 118.307 159.772 118.159 160.435 118.159C161.041 118.159 161.569 118.292 162.02 118.557C162.474 118.818 162.827 119.195 163.077 119.688C163.33 120.176 163.455 120.761 163.452 121.443V127H161.031V121.875C161.035 121.337 160.899 120.919 160.622 120.619C160.349 120.32 159.967 120.17 159.474 120.17C159.145 120.17 158.853 120.241 158.599 120.381C158.349 120.521 158.152 120.725 158.009 120.994C157.868 121.259 157.796 121.58 157.793 121.955ZM167.845 127.165C167.288 127.165 166.792 127.068 166.357 126.875C165.921 126.678 165.576 126.388 165.322 126.006C165.072 125.619 164.947 125.138 164.947 124.562C164.947 124.078 165.036 123.67 165.214 123.341C165.393 123.011 165.635 122.746 165.942 122.545C166.249 122.345 166.597 122.193 166.987 122.091C167.381 121.989 167.794 121.917 168.226 121.875C168.733 121.822 169.143 121.773 169.453 121.727C169.764 121.678 169.989 121.606 170.129 121.511C170.269 121.417 170.339 121.277 170.339 121.091V121.057C170.339 120.697 170.226 120.419 169.999 120.222C169.775 120.025 169.457 119.926 169.044 119.926C168.608 119.926 168.262 120.023 168.004 120.216C167.747 120.405 167.576 120.644 167.493 120.932L165.254 120.75C165.368 120.22 165.591 119.761 165.925 119.375C166.258 118.985 166.688 118.686 167.214 118.477C167.745 118.265 168.358 118.159 169.055 118.159C169.54 118.159 170.004 118.216 170.447 118.33C170.894 118.443 171.29 118.619 171.635 118.858C171.983 119.097 172.258 119.403 172.459 119.778C172.66 120.15 172.76 120.595 172.76 121.114V127H170.464V125.79H170.396C170.256 126.062 170.069 126.303 169.834 126.511C169.599 126.716 169.317 126.877 168.987 126.994C168.658 127.108 168.277 127.165 167.845 127.165ZM168.538 125.494C168.894 125.494 169.209 125.424 169.482 125.284C169.754 125.14 169.968 124.947 170.124 124.705C170.279 124.462 170.357 124.187 170.357 123.881V122.955C170.281 123.004 170.177 123.049 170.044 123.091C169.915 123.129 169.769 123.165 169.607 123.199C169.444 123.229 169.281 123.258 169.118 123.284C168.955 123.307 168.807 123.328 168.675 123.347C168.391 123.388 168.143 123.455 167.93 123.545C167.718 123.636 167.554 123.759 167.436 123.915C167.319 124.066 167.26 124.256 167.26 124.483C167.26 124.812 167.379 125.064 167.618 125.239C167.86 125.409 168.167 125.494 168.538 125.494ZM179.28 118.273V120.091H174.024V118.273H179.28ZM175.217 116.182H177.638V124.318C177.638 124.542 177.672 124.716 177.74 124.841C177.808 124.962 177.903 125.047 178.024 125.097C178.149 125.146 178.293 125.17 178.456 125.17C178.57 125.17 178.683 125.161 178.797 125.142C178.911 125.119 178.998 125.102 179.058 125.091L179.439 126.892C179.318 126.93 179.147 126.973 178.928 127.023C178.708 127.076 178.441 127.108 178.126 127.119C177.543 127.142 177.032 127.064 176.592 126.886C176.157 126.708 175.818 126.432 175.575 126.057C175.333 125.682 175.214 125.208 175.217 124.636V116.182ZM187.048 127.165C186.491 127.165 185.995 127.068 185.56 126.875C185.124 126.678 184.779 126.388 184.526 126.006C184.276 125.619 184.151 125.138 184.151 124.562C184.151 124.078 184.24 123.67 184.418 123.341C184.596 123.011 184.838 122.746 185.145 122.545C185.452 122.345 185.8 122.193 186.19 122.091C186.584 121.989 186.997 121.917 187.429 121.875C187.937 121.822 188.346 121.773 188.656 121.727C188.967 121.678 189.192 121.606 189.332 121.511C189.473 121.417 189.543 121.277 189.543 121.091V121.057C189.543 120.697 189.429 120.419 189.202 120.222C188.978 120.025 188.66 119.926 188.247 119.926C187.812 119.926 187.465 120.023 187.207 120.216C186.95 120.405 186.779 120.644 186.696 120.932L184.457 120.75C184.571 120.22 184.795 119.761 185.128 119.375C185.461 118.985 185.891 118.686 186.418 118.477C186.948 118.265 187.562 118.159 188.259 118.159C188.743 118.159 189.207 118.216 189.651 118.33C190.098 118.443 190.493 118.619 190.838 118.858C191.187 119.097 191.461 119.403 191.662 119.778C191.863 120.15 191.963 120.595 191.963 121.114V127H189.668V125.79H189.599C189.459 126.062 189.272 126.303 189.037 126.511C188.802 126.716 188.52 126.877 188.19 126.994C187.861 127.108 187.48 127.165 187.048 127.165ZM187.741 125.494C188.098 125.494 188.412 125.424 188.685 125.284C188.957 125.14 189.171 124.947 189.327 124.705C189.482 124.462 189.56 124.187 189.56 123.881V122.955C189.484 123.004 189.38 123.049 189.247 123.091C189.118 123.129 188.973 123.165 188.81 123.199C188.647 123.229 188.484 123.258 188.321 123.284C188.158 123.307 188.01 123.328 187.878 123.347C187.594 123.388 187.346 123.455 187.134 123.545C186.921 123.636 186.757 123.759 186.639 123.915C186.522 124.066 186.463 124.256 186.463 124.483C186.463 124.812 186.582 125.064 186.821 125.239C187.063 125.409 187.37 125.494 187.741 125.494ZM196.261 115.364V127H193.841V115.364H196.261ZM200.621 115.364V127H198.2V115.364H200.621ZM206.503 127.17C205.62 127.17 204.857 126.983 204.213 126.608C203.573 126.229 203.079 125.703 202.73 125.028C202.382 124.35 202.207 123.564 202.207 122.67C202.207 121.769 202.382 120.981 202.73 120.307C203.079 119.629 203.573 119.102 204.213 118.727C204.857 118.348 205.62 118.159 206.503 118.159C207.385 118.159 208.147 118.348 208.787 118.727C209.431 119.102 209.927 119.629 210.276 120.307C210.624 120.981 210.798 121.769 210.798 122.67C210.798 123.564 210.624 124.35 210.276 125.028C209.927 125.703 209.431 126.229 208.787 126.608C208.147 126.983 207.385 127.17 206.503 127.17ZM206.514 125.295C206.916 125.295 207.251 125.182 207.52 124.955C207.789 124.723 207.991 124.409 208.128 124.011C208.268 123.614 208.338 123.161 208.338 122.653C208.338 122.146 208.268 121.693 208.128 121.295C207.991 120.898 207.789 120.583 207.52 120.352C207.251 120.121 206.916 120.006 206.514 120.006C206.109 120.006 205.768 120.121 205.491 120.352C205.219 120.583 205.012 120.898 204.872 121.295C204.736 121.693 204.668 122.146 204.668 122.653C204.668 123.161 204.736 123.614 204.872 124.011C205.012 124.409 205.219 124.723 205.491 124.955C205.768 125.182 206.109 125.295 206.514 125.295ZM213.875 127L211.5 118.273H213.949L215.301 124.136H215.381L216.79 118.273H219.193L220.625 124.102H220.699L222.028 118.273H224.472L222.102 127H219.54L218.04 121.511H217.932L216.432 127H213.875ZM233.024 120.761L230.808 120.898C230.77 120.708 230.689 120.538 230.564 120.386C230.439 120.231 230.274 120.108 230.07 120.017C229.869 119.922 229.628 119.875 229.348 119.875C228.973 119.875 228.657 119.955 228.399 120.114C228.142 120.269 228.013 120.477 228.013 120.739C228.013 120.947 228.096 121.123 228.263 121.267C228.429 121.411 228.715 121.527 229.121 121.614L230.7 121.932C231.549 122.106 232.181 122.386 232.598 122.773C233.015 123.159 233.223 123.667 233.223 124.295C233.223 124.867 233.054 125.369 232.717 125.801C232.384 126.233 231.926 126.57 231.342 126.812C230.763 127.051 230.094 127.17 229.337 127.17C228.181 127.17 227.261 126.93 226.575 126.449C225.893 125.964 225.494 125.305 225.376 124.472L227.757 124.347C227.829 124.699 228.003 124.968 228.28 125.153C228.556 125.335 228.911 125.426 229.342 125.426C229.767 125.426 230.107 125.345 230.365 125.182C230.626 125.015 230.759 124.801 230.763 124.54C230.759 124.32 230.666 124.14 230.484 124C230.303 123.856 230.022 123.746 229.643 123.67L228.132 123.369C227.28 123.199 226.645 122.903 226.229 122.483C225.816 122.062 225.609 121.527 225.609 120.875C225.609 120.314 225.761 119.831 226.064 119.426C226.371 119.021 226.801 118.708 227.354 118.489C227.911 118.269 228.562 118.159 229.308 118.159C230.411 118.159 231.278 118.392 231.911 118.858C232.547 119.324 232.918 119.958 233.024 120.761ZM237.378 125.409L237.315 126.034C237.266 126.534 237.171 127.032 237.031 127.528C236.895 128.028 236.751 128.481 236.599 128.886C236.452 129.292 236.332 129.61 236.241 129.841H234.673C234.73 129.617 234.808 129.305 234.906 128.903C235.005 128.506 235.098 128.059 235.185 127.562C235.272 127.066 235.327 126.561 235.349 126.045L235.378 125.409H237.378ZM156.227 139.761L154.011 139.898C153.973 139.708 153.892 139.538 153.767 139.386C153.642 139.231 153.477 139.108 153.273 139.017C153.072 138.922 152.831 138.875 152.551 138.875C152.176 138.875 151.86 138.955 151.602 139.114C151.345 139.269 151.216 139.477 151.216 139.739C151.216 139.947 151.299 140.123 151.466 140.267C151.633 140.411 151.919 140.527 152.324 140.614L153.903 140.932C154.752 141.106 155.384 141.386 155.801 141.773C156.218 142.159 156.426 142.667 156.426 143.295C156.426 143.867 156.258 144.369 155.92 144.801C155.587 145.233 155.129 145.57 154.545 145.812C153.966 146.051 153.297 146.17 152.54 146.17C151.384 146.17 150.464 145.93 149.778 145.449C149.097 144.964 148.697 144.305 148.58 143.472L150.96 143.347C151.032 143.699 151.206 143.968 151.483 144.153C151.759 144.335 152.114 144.426 152.545 144.426C152.97 144.426 153.311 144.345 153.568 144.182C153.83 144.015 153.962 143.801 153.966 143.54C153.962 143.32 153.869 143.14 153.688 143C153.506 142.856 153.225 142.746 152.847 142.67L151.335 142.369C150.483 142.199 149.848 141.903 149.432 141.483C149.019 141.062 148.812 140.527 148.812 139.875C148.812 139.314 148.964 138.831 149.267 138.426C149.574 138.021 150.004 137.708 150.557 137.489C151.114 137.269 151.765 137.159 152.511 137.159C153.614 137.159 154.481 137.392 155.114 137.858C155.75 138.324 156.121 138.958 156.227 139.761ZM161.928 146.17C161.03 146.17 160.257 145.989 159.609 145.625C158.965 145.258 158.469 144.739 158.121 144.068C157.772 143.394 157.598 142.597 157.598 141.676C157.598 140.778 157.772 139.991 158.121 139.312C158.469 138.634 158.96 138.106 159.592 137.727C160.229 137.348 160.975 137.159 161.831 137.159C162.407 137.159 162.943 137.252 163.439 137.438C163.939 137.619 164.375 137.894 164.746 138.261C165.121 138.629 165.412 139.091 165.621 139.648C165.829 140.201 165.933 140.848 165.933 141.591V142.256H158.564V140.756H163.655C163.655 140.407 163.579 140.098 163.428 139.83C163.276 139.561 163.066 139.35 162.797 139.199C162.532 139.044 162.223 138.966 161.871 138.966C161.503 138.966 161.178 139.051 160.893 139.222C160.613 139.388 160.393 139.614 160.234 139.898C160.075 140.178 159.994 140.491 159.99 140.835V142.261C159.99 142.693 160.07 143.066 160.229 143.381C160.392 143.695 160.621 143.938 160.916 144.108C161.212 144.278 161.562 144.364 161.967 144.364C162.236 144.364 162.482 144.326 162.706 144.25C162.929 144.174 163.121 144.061 163.28 143.909C163.439 143.758 163.56 143.572 163.643 143.352L165.882 143.5C165.768 144.038 165.536 144.508 165.183 144.909C164.835 145.307 164.384 145.617 163.831 145.841C163.282 146.061 162.647 146.17 161.928 146.17ZM171.456 146.17C170.562 146.17 169.793 145.981 169.149 145.602C168.509 145.22 168.017 144.689 167.672 144.011C167.331 143.333 167.161 142.553 167.161 141.67C167.161 140.777 167.333 139.992 167.678 139.318C168.026 138.64 168.52 138.112 169.161 137.733C169.801 137.35 170.562 137.159 171.445 137.159C172.206 137.159 172.873 137.297 173.445 137.574C174.017 137.85 174.469 138.239 174.803 138.739C175.136 139.239 175.32 139.826 175.354 140.5H173.07C173.005 140.064 172.835 139.714 172.558 139.449C172.286 139.18 171.928 139.045 171.484 139.045C171.109 139.045 170.782 139.148 170.501 139.352C170.225 139.553 170.009 139.847 169.854 140.233C169.698 140.619 169.621 141.087 169.621 141.636C169.621 142.193 169.696 142.667 169.848 143.057C170.003 143.447 170.221 143.744 170.501 143.949C170.782 144.153 171.109 144.256 171.484 144.256C171.761 144.256 172.009 144.199 172.229 144.085C172.452 143.972 172.636 143.807 172.78 143.591C172.928 143.371 173.024 143.108 173.07 142.801H175.354C175.316 143.468 175.134 144.055 174.808 144.562C174.486 145.066 174.041 145.46 173.473 145.744C172.905 146.028 172.232 146.17 171.456 146.17ZM182.5 142.284V137.273H184.92V146H182.597V144.415H182.506C182.309 144.926 181.981 145.337 181.523 145.648C181.068 145.958 180.513 146.114 179.858 146.114C179.275 146.114 178.761 145.981 178.318 145.716C177.875 145.451 177.528 145.074 177.278 144.585C177.032 144.097 176.907 143.511 176.903 142.83V137.273H179.324V142.398C179.328 142.913 179.466 143.32 179.739 143.619C180.011 143.919 180.377 144.068 180.835 144.068C181.127 144.068 181.4 144.002 181.653 143.869C181.907 143.733 182.112 143.532 182.267 143.267C182.426 143.002 182.504 142.674 182.5 142.284ZM186.857 146V137.273H189.203V138.795H189.294C189.453 138.254 189.72 137.845 190.095 137.568C190.47 137.288 190.902 137.148 191.391 137.148C191.512 137.148 191.643 137.155 191.783 137.17C191.923 137.186 192.046 137.206 192.152 137.233V139.381C192.038 139.347 191.881 139.316 191.68 139.29C191.48 139.263 191.296 139.25 191.129 139.25C190.773 139.25 190.455 139.328 190.175 139.483C189.898 139.634 189.679 139.847 189.516 140.119C189.357 140.392 189.277 140.706 189.277 141.062V146H186.857ZM196.974 146.17C196.077 146.17 195.304 145.989 194.656 145.625C194.012 145.258 193.516 144.739 193.168 144.068C192.819 143.394 192.645 142.597 192.645 141.676C192.645 140.778 192.819 139.991 193.168 139.312C193.516 138.634 194.007 138.106 194.639 137.727C195.276 137.348 196.022 137.159 196.878 137.159C197.454 137.159 197.99 137.252 198.486 137.438C198.986 137.619 199.421 137.894 199.793 138.261C200.168 138.629 200.459 139.091 200.668 139.648C200.876 140.201 200.98 140.848 200.98 141.591V142.256H193.611V140.756H198.702C198.702 140.407 198.626 140.098 198.474 139.83C198.323 139.561 198.113 139.35 197.844 139.199C197.579 139.044 197.27 138.966 196.918 138.966C196.55 138.966 196.224 139.051 195.94 139.222C195.66 139.388 195.44 139.614 195.281 139.898C195.122 140.178 195.041 140.491 195.037 140.835V142.261C195.037 142.693 195.116 143.066 195.276 143.381C195.438 143.695 195.668 143.938 195.963 144.108C196.259 144.278 196.609 144.364 197.014 144.364C197.283 144.364 197.529 144.326 197.753 144.25C197.976 144.174 198.168 144.061 198.327 143.909C198.486 143.758 198.607 143.572 198.69 143.352L200.929 143.5C200.815 144.038 200.582 144.508 200.23 144.909C199.882 145.307 199.431 145.617 198.878 145.841C198.329 146.061 197.694 146.17 196.974 146.17ZM205.19 144.409L205.128 145.034C205.079 145.534 204.984 146.032 204.844 146.528C204.707 147.028 204.563 147.481 204.412 147.886C204.264 148.292 204.145 148.61 204.054 148.841H202.486C202.543 148.617 202.62 148.305 202.719 147.903C202.817 147.506 202.91 147.059 202.997 146.562C203.084 146.066 203.139 145.561 203.162 145.045L203.19 144.409H205.19ZM215.253 137.273V139.091H209.866V137.273H215.253ZM211.099 146V136.642C211.099 136.009 211.223 135.485 211.469 135.068C211.719 134.652 212.06 134.339 212.491 134.131C212.923 133.922 213.414 133.818 213.963 133.818C214.334 133.818 214.673 133.847 214.98 133.903C215.291 133.96 215.522 134.011 215.673 134.057L215.241 135.875C215.147 135.845 215.029 135.816 214.889 135.79C214.753 135.763 214.613 135.75 214.469 135.75C214.113 135.75 213.865 135.833 213.724 136C213.584 136.163 213.514 136.392 213.514 136.688V146H211.099ZM218.908 146.165C218.351 146.165 217.855 146.068 217.419 145.875C216.983 145.678 216.639 145.388 216.385 145.006C216.135 144.619 216.01 144.138 216.01 143.562C216.01 143.078 216.099 142.67 216.277 142.341C216.455 142.011 216.697 141.746 217.004 141.545C217.311 141.345 217.66 141.193 218.05 141.091C218.444 140.989 218.857 140.917 219.288 140.875C219.796 140.822 220.205 140.773 220.516 140.727C220.826 140.678 221.052 140.606 221.192 140.511C221.332 140.417 221.402 140.277 221.402 140.091V140.057C221.402 139.697 221.288 139.419 221.061 139.222C220.838 139.025 220.519 138.926 220.107 138.926C219.671 138.926 219.324 139.023 219.067 139.216C218.809 139.405 218.639 139.644 218.555 139.932L216.317 139.75C216.43 139.22 216.654 138.761 216.987 138.375C217.321 137.985 217.75 137.686 218.277 137.477C218.807 137.265 219.421 137.159 220.118 137.159C220.603 137.159 221.067 137.216 221.51 137.33C221.957 137.443 222.353 137.619 222.697 137.858C223.046 138.097 223.321 138.403 223.521 138.778C223.722 139.15 223.822 139.595 223.822 140.114V146H221.527V144.79H221.459C221.319 145.062 221.131 145.303 220.896 145.511C220.661 145.716 220.379 145.877 220.05 145.994C219.72 146.108 219.339 146.165 218.908 146.165ZM219.601 144.494C219.957 144.494 220.271 144.424 220.544 144.284C220.817 144.14 221.031 143.947 221.186 143.705C221.341 143.462 221.419 143.187 221.419 142.881V141.955C221.343 142.004 221.239 142.049 221.107 142.091C220.978 142.129 220.832 142.165 220.669 142.199C220.506 142.229 220.343 142.258 220.18 142.284C220.018 142.307 219.87 142.328 219.737 142.347C219.453 142.388 219.205 142.455 218.993 142.545C218.781 142.636 218.616 142.759 218.499 142.915C218.381 143.066 218.322 143.256 218.322 143.483C218.322 143.812 218.442 144.064 218.68 144.239C218.923 144.409 219.23 144.494 219.601 144.494ZM232.962 139.761L230.746 139.898C230.708 139.708 230.626 139.538 230.501 139.386C230.376 139.231 230.212 139.108 230.007 139.017C229.806 138.922 229.566 138.875 229.286 138.875C228.911 138.875 228.594 138.955 228.337 139.114C228.079 139.269 227.95 139.477 227.95 139.739C227.95 139.947 228.034 140.123 228.2 140.267C228.367 140.411 228.653 140.527 229.058 140.614L230.638 140.932C231.486 141.106 232.119 141.386 232.536 141.773C232.952 142.159 233.161 142.667 233.161 143.295C233.161 143.867 232.992 144.369 232.655 144.801C232.321 145.233 231.863 145.57 231.28 145.812C230.7 146.051 230.032 146.17 229.274 146.17C228.119 146.17 227.198 145.93 226.513 145.449C225.831 144.964 225.431 144.305 225.314 143.472L227.695 143.347C227.767 143.699 227.941 143.968 228.217 144.153C228.494 144.335 228.848 144.426 229.28 144.426C229.704 144.426 230.045 144.345 230.303 144.182C230.564 144.015 230.696 143.801 230.7 143.54C230.696 143.32 230.604 143.14 230.422 143C230.24 142.856 229.96 142.746 229.581 142.67L228.07 142.369C227.217 142.199 226.583 141.903 226.166 141.483C225.753 141.062 225.547 140.527 225.547 139.875C225.547 139.314 225.698 138.831 226.001 138.426C226.308 138.021 226.738 137.708 227.291 137.489C227.848 137.269 228.5 137.159 229.246 137.159C230.348 137.159 231.215 137.392 231.848 137.858C232.484 138.324 232.856 138.958 232.962 139.761ZM239.327 137.273V139.091H234.071V137.273H239.327ZM235.264 135.182H237.685V143.318C237.685 143.542 237.719 143.716 237.787 143.841C237.855 143.962 237.95 144.047 238.071 144.097C238.196 144.146 238.34 144.17 238.503 144.17C238.616 144.17 238.73 144.161 238.844 144.142C238.957 144.119 239.045 144.102 239.105 144.091L239.486 145.892C239.365 145.93 239.194 145.973 238.974 146.023C238.755 146.076 238.488 146.108 238.173 146.119C237.59 146.142 237.079 146.064 236.639 145.886C236.204 145.708 235.865 145.432 235.622 145.057C235.38 144.682 235.26 144.208 235.264 143.636V135.182ZM243.534 144.409L243.472 145.034C243.422 145.534 243.328 146.032 243.188 146.528C243.051 147.028 242.907 147.481 242.756 147.886C242.608 148.292 242.489 148.61 242.398 148.841H240.83C240.886 148.617 240.964 148.305 241.062 147.903C241.161 147.506 241.254 147.059 241.341 146.562C241.428 146.066 241.483 145.561 241.506 145.045L241.534 144.409H243.534ZM151.455 165.165C150.898 165.165 150.402 165.068 149.966 164.875C149.53 164.678 149.186 164.388 148.932 164.006C148.682 163.619 148.557 163.138 148.557 162.562C148.557 162.078 148.646 161.67 148.824 161.341C149.002 161.011 149.244 160.746 149.551 160.545C149.858 160.345 150.206 160.193 150.597 160.091C150.991 159.989 151.403 159.917 151.835 159.875C152.343 159.822 152.752 159.773 153.062 159.727C153.373 159.678 153.598 159.606 153.739 159.511C153.879 159.417 153.949 159.277 153.949 159.091V159.057C153.949 158.697 153.835 158.419 153.608 158.222C153.384 158.025 153.066 157.926 152.653 157.926C152.218 157.926 151.871 158.023 151.614 158.216C151.356 158.405 151.186 158.644 151.102 158.932L148.864 158.75C148.977 158.22 149.201 157.761 149.534 157.375C149.867 156.985 150.297 156.686 150.824 156.477C151.354 156.265 151.968 156.159 152.665 156.159C153.15 156.159 153.614 156.216 154.057 156.33C154.504 156.443 154.9 156.619 155.244 156.858C155.593 157.097 155.867 157.403 156.068 157.778C156.269 158.15 156.369 158.595 156.369 159.114V165H154.074V163.79H154.006C153.866 164.062 153.678 164.303 153.443 164.511C153.208 164.716 152.926 164.877 152.597 164.994C152.267 165.108 151.886 165.165 151.455 165.165ZM152.148 163.494C152.504 163.494 152.818 163.424 153.091 163.284C153.364 163.14 153.578 162.947 153.733 162.705C153.888 162.462 153.966 162.187 153.966 161.881V160.955C153.89 161.004 153.786 161.049 153.653 161.091C153.525 161.129 153.379 161.165 153.216 161.199C153.053 161.229 152.89 161.258 152.727 161.284C152.564 161.307 152.417 161.328 152.284 161.347C152 161.388 151.752 161.455 151.54 161.545C151.328 161.636 151.163 161.759 151.045 161.915C150.928 162.066 150.869 162.256 150.869 162.483C150.869 162.812 150.989 163.064 151.227 163.239C151.47 163.409 151.777 163.494 152.148 163.494ZM160.668 159.955V165H158.247V156.273H160.554V157.812H160.656C160.849 157.305 161.173 156.903 161.628 156.608C162.082 156.309 162.634 156.159 163.281 156.159C163.887 156.159 164.416 156.292 164.866 156.557C165.317 156.822 165.668 157.201 165.918 157.693C166.168 158.182 166.293 158.765 166.293 159.443V165H163.872V159.875C163.876 159.341 163.74 158.924 163.463 158.625C163.187 158.322 162.806 158.17 162.321 158.17C161.995 158.17 161.707 158.241 161.457 158.381C161.211 158.521 161.018 158.725 160.878 158.994C160.741 159.259 160.671 159.58 160.668 159.955ZM171.416 165.142C170.753 165.142 170.153 164.972 169.615 164.631C169.081 164.286 168.657 163.78 168.342 163.114C168.032 162.443 167.876 161.621 167.876 160.648C167.876 159.648 168.037 158.816 168.359 158.153C168.681 157.487 169.109 156.989 169.643 156.659C170.181 156.326 170.77 156.159 171.411 156.159C171.899 156.159 172.306 156.242 172.632 156.409C172.962 156.572 173.227 156.777 173.428 157.023C173.632 157.265 173.787 157.504 173.893 157.739H173.967V153.364H176.382V165H173.996V163.602H173.893C173.78 163.845 173.619 164.085 173.411 164.324C173.206 164.559 172.939 164.754 172.609 164.909C172.284 165.064 171.886 165.142 171.416 165.142ZM172.183 163.216C172.573 163.216 172.903 163.11 173.172 162.898C173.445 162.682 173.653 162.381 173.797 161.994C173.945 161.608 174.018 161.155 174.018 160.636C174.018 160.117 173.946 159.667 173.803 159.284C173.659 158.902 173.45 158.606 173.178 158.398C172.905 158.189 172.573 158.085 172.183 158.085C171.786 158.085 171.45 158.193 171.178 158.409C170.905 158.625 170.698 158.924 170.558 159.307C170.418 159.689 170.348 160.133 170.348 160.636C170.348 161.144 170.418 161.593 170.558 161.983C170.702 162.369 170.909 162.672 171.178 162.892C171.45 163.108 171.786 163.216 172.183 163.216ZM184.496 159.955V165H182.075V156.273H184.382V157.812H184.484C184.678 157.305 185.001 156.903 185.456 156.608C185.911 156.309 186.462 156.159 187.109 156.159C187.715 156.159 188.244 156.292 188.695 156.557C189.145 156.822 189.496 157.201 189.746 157.693C189.996 158.182 190.121 158.765 190.121 159.443V165H187.7V159.875C187.704 159.341 187.568 158.924 187.291 158.625C187.015 158.322 186.634 158.17 186.149 158.17C185.823 158.17 185.536 158.241 185.286 158.381C185.039 158.521 184.846 158.725 184.706 158.994C184.57 159.259 184.5 159.58 184.496 159.955ZM195.972 165.17C195.089 165.17 194.326 164.983 193.682 164.608C193.042 164.229 192.547 163.703 192.199 163.028C191.85 162.35 191.676 161.564 191.676 160.67C191.676 159.769 191.85 158.981 192.199 158.307C192.547 157.629 193.042 157.102 193.682 156.727C194.326 156.348 195.089 156.159 195.972 156.159C196.854 156.159 197.616 156.348 198.256 156.727C198.9 157.102 199.396 157.629 199.744 158.307C200.093 158.981 200.267 159.769 200.267 160.67C200.267 161.564 200.093 162.35 199.744 163.028C199.396 163.703 198.9 164.229 198.256 164.608C197.616 164.983 196.854 165.17 195.972 165.17ZM195.983 163.295C196.384 163.295 196.72 163.182 196.989 162.955C197.258 162.723 197.46 162.409 197.597 162.011C197.737 161.614 197.807 161.161 197.807 160.653C197.807 160.146 197.737 159.693 197.597 159.295C197.46 158.898 197.258 158.583 196.989 158.352C196.72 158.121 196.384 158.006 195.983 158.006C195.578 158.006 195.237 158.121 194.96 158.352C194.688 158.583 194.481 158.898 194.341 159.295C194.205 159.693 194.136 160.146 194.136 160.653C194.136 161.161 194.205 161.614 194.341 162.011C194.481 162.409 194.688 162.723 194.96 162.955C195.237 163.182 195.578 163.295 195.983 163.295ZM152.909 184.17C152.015 184.17 151.246 183.981 150.602 183.602C149.962 183.22 149.47 182.689 149.125 182.011C148.784 181.333 148.614 180.553 148.614 179.67C148.614 178.777 148.786 177.992 149.131 177.318C149.479 176.64 149.973 176.112 150.614 175.733C151.254 175.35 152.015 175.159 152.898 175.159C153.659 175.159 154.326 175.297 154.898 175.574C155.47 175.85 155.922 176.239 156.256 176.739C156.589 177.239 156.773 177.826 156.807 178.5H154.523C154.458 178.064 154.288 177.714 154.011 177.449C153.739 177.18 153.381 177.045 152.938 177.045C152.562 177.045 152.235 177.148 151.955 177.352C151.678 177.553 151.462 177.847 151.307 178.233C151.152 178.619 151.074 179.087 151.074 179.636C151.074 180.193 151.15 180.667 151.301 181.057C151.456 181.447 151.674 181.744 151.955 181.949C152.235 182.153 152.562 182.256 152.938 182.256C153.214 182.256 153.462 182.199 153.682 182.085C153.905 181.972 154.089 181.807 154.233 181.591C154.381 181.371 154.477 181.108 154.523 180.801H156.807C156.769 181.468 156.587 182.055 156.261 182.562C155.939 183.066 155.494 183.46 154.926 183.744C154.358 184.028 153.686 184.17 152.909 184.17ZM162.334 184.17C161.436 184.17 160.663 183.989 160.016 183.625C159.372 183.258 158.875 182.739 158.527 182.068C158.179 181.394 158.004 180.597 158.004 179.676C158.004 178.778 158.179 177.991 158.527 177.312C158.875 176.634 159.366 176.106 159.999 175.727C160.635 175.348 161.381 175.159 162.237 175.159C162.813 175.159 163.349 175.252 163.845 175.438C164.345 175.619 164.781 175.894 165.152 176.261C165.527 176.629 165.819 177.091 166.027 177.648C166.235 178.201 166.339 178.848 166.339 179.591V180.256H158.97V178.756H164.061C164.061 178.407 163.985 178.098 163.834 177.83C163.682 177.561 163.472 177.35 163.203 177.199C162.938 177.044 162.629 176.966 162.277 176.966C161.91 176.966 161.584 177.051 161.3 177.222C161.019 177.388 160.8 177.614 160.641 177.898C160.482 178.178 160.4 178.491 160.396 178.835V180.261C160.396 180.693 160.476 181.066 160.635 181.381C160.798 181.695 161.027 181.938 161.322 182.108C161.618 182.278 161.968 182.364 162.374 182.364C162.643 182.364 162.889 182.326 163.112 182.25C163.336 182.174 163.527 182.061 163.686 181.909C163.845 181.758 163.966 181.572 164.05 181.352L166.288 181.5C166.175 182.038 165.942 182.508 165.589 182.909C165.241 183.307 164.79 183.617 164.237 183.841C163.688 184.061 163.054 184.17 162.334 184.17ZM170.339 178.955V184H167.919V175.273H170.226V176.812H170.328C170.521 176.305 170.845 175.903 171.3 175.608C171.754 175.309 172.305 175.159 172.953 175.159C173.559 175.159 174.088 175.292 174.538 175.557C174.989 175.822 175.339 176.201 175.589 176.693C175.839 177.182 175.964 177.765 175.964 178.443V184H173.544V178.875C173.548 178.341 173.411 177.924 173.135 177.625C172.858 177.322 172.478 177.17 171.993 177.17C171.667 177.17 171.379 177.241 171.129 177.381C170.883 177.521 170.69 177.725 170.55 177.994C170.413 178.259 170.343 178.58 170.339 178.955ZM181.815 184.17C180.921 184.17 180.152 183.981 179.509 183.602C178.868 183.22 178.376 182.689 178.031 182.011C177.69 181.333 177.52 180.553 177.52 179.67C177.52 178.777 177.692 177.992 178.037 177.318C178.385 176.64 178.88 176.112 179.52 175.733C180.16 175.35 180.921 175.159 181.804 175.159C182.565 175.159 183.232 175.297 183.804 175.574C184.376 175.85 184.829 176.239 185.162 176.739C185.495 177.239 185.679 177.826 185.713 178.5H183.429C183.365 178.064 183.194 177.714 182.918 177.449C182.645 177.18 182.287 177.045 181.844 177.045C181.469 177.045 181.141 177.148 180.861 177.352C180.584 177.553 180.368 177.847 180.213 178.233C180.058 178.619 179.98 179.087 179.98 179.636C179.98 180.193 180.056 180.667 180.207 181.057C180.363 181.447 180.58 181.744 180.861 181.949C181.141 182.153 181.469 182.256 181.844 182.256C182.12 182.256 182.368 182.199 182.588 182.085C182.812 181.972 182.995 181.807 183.139 181.591C183.287 181.371 183.384 181.108 183.429 180.801H185.713C185.675 181.468 185.493 182.055 185.168 182.562C184.846 183.066 184.401 183.46 183.832 183.744C183.264 184.028 182.592 184.17 181.815 184.17ZM191.206 184.17C190.323 184.17 189.56 183.983 188.916 183.608C188.276 183.229 187.782 182.703 187.433 182.028C187.085 181.35 186.911 180.564 186.911 179.67C186.911 178.769 187.085 177.981 187.433 177.307C187.782 176.629 188.276 176.102 188.916 175.727C189.56 175.348 190.323 175.159 191.206 175.159C192.089 175.159 192.85 175.348 193.49 175.727C194.134 176.102 194.63 176.629 194.979 177.307C195.327 177.981 195.501 178.769 195.501 179.67C195.501 180.564 195.327 181.35 194.979 182.028C194.63 182.703 194.134 183.229 193.49 183.608C192.85 183.983 192.089 184.17 191.206 184.17ZM191.217 182.295C191.619 182.295 191.954 182.182 192.223 181.955C192.492 181.723 192.695 181.409 192.831 181.011C192.971 180.614 193.041 180.161 193.041 179.653C193.041 179.146 192.971 178.693 192.831 178.295C192.695 177.898 192.492 177.583 192.223 177.352C191.954 177.121 191.619 177.006 191.217 177.006C190.812 177.006 190.471 177.121 190.195 177.352C189.922 177.583 189.715 177.898 189.575 178.295C189.439 178.693 189.371 179.146 189.371 179.653C189.371 180.161 189.439 180.614 189.575 181.011C189.715 181.409 189.922 181.723 190.195 181.955C190.471 182.182 190.812 182.295 191.217 182.295ZM197.075 184V175.273H199.422V176.795H199.513C199.672 176.254 199.939 175.845 200.314 175.568C200.689 175.288 201.121 175.148 201.609 175.148C201.731 175.148 201.861 175.155 202.001 175.17C202.142 175.186 202.265 175.206 202.371 175.233V177.381C202.257 177.347 202.1 177.316 201.899 177.29C201.698 177.263 201.515 177.25 201.348 177.25C200.992 177.25 200.674 177.328 200.393 177.483C200.117 177.634 199.897 177.847 199.734 178.119C199.575 178.392 199.496 178.706 199.496 179.062V184H197.075ZM210.884 177.761L208.668 177.898C208.63 177.708 208.548 177.538 208.423 177.386C208.298 177.231 208.134 177.108 207.929 177.017C207.728 176.922 207.488 176.875 207.207 176.875C206.832 176.875 206.516 176.955 206.259 177.114C206.001 177.269 205.872 177.477 205.872 177.739C205.872 177.947 205.955 178.123 206.122 178.267C206.289 178.411 206.575 178.527 206.98 178.614L208.56 178.932C209.408 179.106 210.041 179.386 210.457 179.773C210.874 180.159 211.082 180.667 211.082 181.295C211.082 181.867 210.914 182.369 210.577 182.801C210.243 183.233 209.785 183.57 209.202 183.812C208.622 184.051 207.954 184.17 207.196 184.17C206.041 184.17 205.12 183.93 204.435 183.449C203.753 182.964 203.353 182.305 203.236 181.472L205.616 181.347C205.688 181.699 205.863 181.968 206.139 182.153C206.416 182.335 206.77 182.426 207.202 182.426C207.626 182.426 207.967 182.345 208.224 182.182C208.486 182.015 208.618 181.801 208.622 181.54C208.618 181.32 208.526 181.14 208.344 181C208.162 180.856 207.882 180.746 207.503 180.67L205.991 180.369C205.139 180.199 204.505 179.903 204.088 179.483C203.675 179.062 203.469 178.527 203.469 177.875C203.469 177.314 203.62 176.831 203.923 176.426C204.23 176.021 204.66 175.708 205.213 175.489C205.77 175.269 206.421 175.159 207.168 175.159C208.27 175.159 209.137 175.392 209.77 175.858C210.406 176.324 210.777 176.958 210.884 177.761ZM215.027 178.955V184H212.607V172.364H214.959V176.812H215.061C215.258 176.297 215.576 175.894 216.016 175.602C216.455 175.307 217.006 175.159 217.669 175.159C218.275 175.159 218.804 175.292 219.254 175.557C219.709 175.818 220.061 176.195 220.311 176.688C220.565 177.176 220.69 177.761 220.686 178.443V184H218.266V178.875C218.269 178.337 218.133 177.919 217.857 177.619C217.584 177.32 217.201 177.17 216.709 177.17C216.379 177.17 216.088 177.241 215.834 177.381C215.584 177.521 215.387 177.725 215.243 177.994C215.103 178.259 215.031 178.58 215.027 178.955ZM222.591 184V175.273H225.011V184H222.591ZM223.807 174.148C223.447 174.148 223.138 174.028 222.881 173.79C222.627 173.547 222.5 173.258 222.5 172.92C222.5 172.587 222.627 172.301 222.881 172.062C223.138 171.82 223.447 171.699 223.807 171.699C224.167 171.699 224.473 171.82 224.727 172.062C224.985 172.301 225.114 172.587 225.114 172.92C225.114 173.258 224.985 173.547 224.727 173.79C224.473 174.028 224.167 174.148 223.807 174.148ZM226.95 187.273V175.273H229.337V176.739H229.445C229.551 176.504 229.704 176.265 229.905 176.023C230.109 175.777 230.375 175.572 230.7 175.409C231.03 175.242 231.439 175.159 231.928 175.159C232.564 175.159 233.151 175.326 233.689 175.659C234.227 175.989 234.657 176.487 234.979 177.153C235.301 177.816 235.462 178.648 235.462 179.648C235.462 180.621 235.304 181.443 234.99 182.114C234.679 182.78 234.255 183.286 233.717 183.631C233.183 183.972 232.585 184.142 231.922 184.142C231.452 184.142 231.053 184.064 230.723 183.909C230.397 183.754 230.13 183.559 229.922 183.324C229.714 183.085 229.554 182.845 229.445 182.602H229.371V187.273H226.95ZM229.32 179.636C229.32 180.155 229.392 180.608 229.536 180.994C229.679 181.381 229.888 181.682 230.161 181.898C230.433 182.11 230.765 182.216 231.155 182.216C231.549 182.216 231.882 182.108 232.155 181.892C232.428 181.672 232.634 181.369 232.774 180.983C232.918 180.593 232.99 180.144 232.99 179.636C232.99 179.133 232.92 178.689 232.78 178.307C232.64 177.924 232.433 177.625 232.161 177.409C231.888 177.193 231.553 177.085 231.155 177.085C230.761 177.085 230.428 177.189 230.155 177.398C229.886 177.606 229.679 177.902 229.536 178.284C229.392 178.667 229.32 179.117 229.32 179.636ZM148.966 206.273V194.273H151.352V195.739H151.46C151.566 195.504 151.72 195.265 151.92 195.023C152.125 194.777 152.39 194.572 152.716 194.409C153.045 194.242 153.455 194.159 153.943 194.159C154.58 194.159 155.167 194.326 155.705 194.659C156.242 194.989 156.672 195.487 156.994 196.153C157.316 196.816 157.477 197.648 157.477 198.648C157.477 199.621 157.32 200.443 157.006 201.114C156.695 201.78 156.271 202.286 155.733 202.631C155.199 202.972 154.6 203.142 153.938 203.142C153.468 203.142 153.068 203.064 152.739 202.909C152.413 202.754 152.146 202.559 151.938 202.324C151.729 202.085 151.57 201.845 151.46 201.602H151.386V206.273H148.966ZM151.335 198.636C151.335 199.155 151.407 199.608 151.551 199.994C151.695 200.381 151.903 200.682 152.176 200.898C152.449 201.11 152.78 201.216 153.17 201.216C153.564 201.216 153.898 201.108 154.17 200.892C154.443 200.672 154.65 200.369 154.79 199.983C154.934 199.593 155.006 199.144 155.006 198.636C155.006 198.133 154.936 197.689 154.795 197.307C154.655 196.924 154.449 196.625 154.176 196.409C153.903 196.193 153.568 196.085 153.17 196.085C152.777 196.085 152.443 196.189 152.17 196.398C151.902 196.606 151.695 196.902 151.551 197.284C151.407 197.667 151.335 198.117 151.335 198.636ZM163.034 203.17C162.152 203.17 161.388 202.983 160.744 202.608C160.104 202.229 159.61 201.703 159.261 201.028C158.913 200.35 158.739 199.564 158.739 198.67C158.739 197.769 158.913 196.981 159.261 196.307C159.61 195.629 160.104 195.102 160.744 194.727C161.388 194.348 162.152 194.159 163.034 194.159C163.917 194.159 164.678 194.348 165.318 194.727C165.962 195.102 166.458 195.629 166.807 196.307C167.155 196.981 167.33 197.769 167.33 198.67C167.33 199.564 167.155 200.35 166.807 201.028C166.458 201.703 165.962 202.229 165.318 202.608C164.678 202.983 163.917 203.17 163.034 203.17ZM163.045 201.295C163.447 201.295 163.782 201.182 164.051 200.955C164.32 200.723 164.523 200.409 164.659 200.011C164.799 199.614 164.869 199.161 164.869 198.653C164.869 198.146 164.799 197.693 164.659 197.295C164.523 196.898 164.32 196.583 164.051 196.352C163.782 196.121 163.447 196.006 163.045 196.006C162.64 196.006 162.299 196.121 162.023 196.352C161.75 196.583 161.544 196.898 161.403 197.295C161.267 197.693 161.199 198.146 161.199 198.653C161.199 199.161 161.267 199.614 161.403 200.011C161.544 200.409 161.75 200.723 162.023 200.955C162.299 201.182 162.64 201.295 163.045 201.295ZM171.324 191.364V203H168.903V191.364H171.324ZM173.263 203V194.273H175.683V203H173.263ZM174.479 193.148C174.119 193.148 173.81 193.028 173.553 192.79C173.299 192.547 173.172 192.258 173.172 191.92C173.172 191.587 173.299 191.301 173.553 191.062C173.81 190.82 174.119 190.699 174.479 190.699C174.839 190.699 175.145 190.82 175.399 191.062C175.657 191.301 175.786 191.587 175.786 191.92C175.786 192.258 175.657 192.547 175.399 192.79C175.145 193.028 174.839 193.148 174.479 193.148ZM181.565 203.17C180.671 203.17 179.902 202.981 179.259 202.602C178.618 202.22 178.126 201.689 177.781 201.011C177.44 200.333 177.27 199.553 177.27 198.67C177.27 197.777 177.442 196.992 177.787 196.318C178.135 195.64 178.63 195.112 179.27 194.733C179.91 194.35 180.671 194.159 181.554 194.159C182.315 194.159 182.982 194.297 183.554 194.574C184.126 194.85 184.579 195.239 184.912 195.739C185.245 196.239 185.429 196.826 185.463 197.5H183.179C183.115 197.064 182.944 196.714 182.668 196.449C182.395 196.18 182.037 196.045 181.594 196.045C181.219 196.045 180.891 196.148 180.611 196.352C180.334 196.553 180.118 196.847 179.963 197.233C179.808 197.619 179.73 198.087 179.73 198.636C179.73 199.193 179.806 199.667 179.957 200.057C180.113 200.447 180.33 200.744 180.611 200.949C180.891 201.153 181.219 201.256 181.594 201.256C181.87 201.256 182.118 201.199 182.338 201.085C182.562 200.972 182.745 200.807 182.889 200.591C183.037 200.371 183.134 200.108 183.179 199.801H185.463C185.425 200.468 185.243 201.055 184.918 201.562C184.596 202.066 184.151 202.46 183.582 202.744C183.014 203.028 182.342 203.17 181.565 203.17ZM188.507 206.273C188.2 206.273 187.912 206.248 187.643 206.199C187.378 206.153 187.159 206.095 186.984 206.023L187.53 204.216C187.814 204.303 188.07 204.35 188.297 204.358C188.528 204.366 188.727 204.313 188.893 204.199C189.064 204.085 189.202 203.892 189.308 203.619L189.45 203.25L186.32 194.273H188.865L190.672 200.682H190.763L192.587 194.273H195.149L191.757 203.943C191.594 204.413 191.373 204.822 191.092 205.17C190.816 205.523 190.465 205.794 190.041 205.983C189.617 206.176 189.106 206.273 188.507 206.273ZM197.256 203.148C196.881 203.148 196.559 203.015 196.29 202.75C196.025 202.481 195.892 202.159 195.892 201.784C195.892 201.413 196.025 201.095 196.29 200.83C196.559 200.564 196.881 200.432 197.256 200.432C197.619 200.432 197.938 200.564 198.21 200.83C198.483 201.095 198.619 201.413 198.619 201.784C198.619 202.034 198.555 202.263 198.426 202.472C198.301 202.676 198.136 202.841 197.932 202.966C197.727 203.087 197.502 203.148 197.256 203.148Z" fill="white"/>
</svg>
