<svg width="1063" height="786" viewBox="0 0 1063 786" fill="none" xmlns="http://www.w3.org/2000/svg">
<path d="M780.678 189.98C842.379 259.541 879.845 356.219 865.173 449.622C850.632 542.894 783.953 632.76 696.445 672.322C608.806 712.015 500.207 701.404 425.668 652.934C350.998 604.464 310.388 518.135 310.65 443.989C310.912 369.843 352.046 307.88 398.289 241.987C444.401 175.963 495.622 105.878 564.266 91.992C632.91 78.106 718.846 120.419 780.678 189.98Z" fill="#2E121D"/>
<path d="M453.051 268H445.142L457.193 233.091H466.705L478.739 268H470.83L462.085 241.068H461.812L453.051 268ZM452.557 254.278H471.239V260.04H452.557V254.278ZM501.175 252.864V268H493.913V241.818H500.834V246.438H501.141C501.72 244.915 502.692 243.71 504.055 242.824C505.419 241.926 507.072 241.477 509.016 241.477C510.834 241.477 512.419 241.875 513.771 242.67C515.124 243.466 516.175 244.602 516.925 246.08C517.675 247.545 518.05 249.295 518.05 251.33V268H510.788V252.625C510.8 251.023 510.391 249.773 509.561 248.875C508.732 247.966 507.589 247.511 506.135 247.511C505.158 247.511 504.294 247.722 503.544 248.142C502.805 248.562 502.226 249.176 501.805 249.983C501.396 250.778 501.186 251.739 501.175 252.864ZM535.705 268.511C533.011 268.511 530.693 267.966 528.75 266.875C526.818 265.773 525.33 264.216 524.284 262.205C523.239 260.182 522.716 257.79 522.716 255.028C522.716 252.335 523.239 249.972 524.284 247.938C525.33 245.903 526.801 244.318 528.699 243.182C530.608 242.045 532.847 241.477 535.415 241.477C537.142 241.477 538.75 241.756 540.239 242.312C541.739 242.858 543.045 243.682 544.159 244.784C545.284 245.886 546.159 247.273 546.784 248.943C547.409 250.602 547.722 252.545 547.722 254.773V256.767H525.614V252.267H540.886C540.886 251.222 540.659 250.295 540.205 249.489C539.75 248.682 539.119 248.051 538.312 247.597C537.517 247.131 536.591 246.898 535.534 246.898C534.432 246.898 533.455 247.153 532.602 247.665C531.761 248.165 531.102 248.841 530.625 249.693C530.148 250.534 529.903 251.472 529.892 252.506V256.784C529.892 258.08 530.131 259.199 530.608 260.142C531.097 261.085 531.784 261.812 532.67 262.324C533.557 262.835 534.608 263.091 535.824 263.091C536.631 263.091 537.369 262.977 538.04 262.75C538.71 262.523 539.284 262.182 539.761 261.727C540.239 261.273 540.602 260.716 540.852 260.057L547.568 260.5C547.227 262.114 546.528 263.523 545.472 264.727C544.426 265.92 543.074 266.852 541.415 267.523C539.767 268.182 537.864 268.511 535.705 268.511ZM557.438 268L550.312 241.818H557.659L561.716 259.409H561.955L566.182 241.818H573.392L577.688 259.307H577.909L581.898 241.818H589.227L582.119 268H574.432L569.932 251.534H569.608L565.108 268H557.438ZM623.284 243.131C623.148 241.756 622.563 240.687 621.528 239.926C620.494 239.165 619.091 238.784 617.318 238.784C616.114 238.784 615.097 238.955 614.267 239.295C613.438 239.625 612.801 240.085 612.358 240.676C611.926 241.267 611.71 241.938 611.71 242.688C611.688 243.312 611.818 243.858 612.102 244.324C612.398 244.79 612.801 245.193 613.312 245.534C613.824 245.864 614.415 246.153 615.085 246.403C615.756 246.642 616.472 246.847 617.233 247.017L620.369 247.767C621.892 248.108 623.29 248.562 624.562 249.131C625.835 249.699 626.938 250.398 627.869 251.227C628.801 252.057 629.523 253.034 630.034 254.159C630.557 255.284 630.824 256.574 630.835 258.028C630.824 260.165 630.278 262.017 629.199 263.585C628.131 265.142 626.585 266.352 624.562 267.216C622.551 268.068 620.125 268.494 617.284 268.494C614.466 268.494 612.011 268.062 609.92 267.199C607.841 266.335 606.216 265.057 605.045 263.364C603.886 261.659 603.278 259.551 603.222 257.04H610.364C610.443 258.21 610.778 259.187 611.369 259.972C611.972 260.744 612.773 261.33 613.773 261.727C614.784 262.114 615.926 262.307 617.199 262.307C618.449 262.307 619.534 262.125 620.455 261.761C621.386 261.398 622.108 260.892 622.619 260.244C623.131 259.597 623.386 258.852 623.386 258.011C623.386 257.227 623.153 256.568 622.688 256.034C622.233 255.5 621.563 255.045 620.676 254.67C619.801 254.295 618.727 253.955 617.455 253.648L613.653 252.693C610.71 251.977 608.386 250.858 606.682 249.335C604.977 247.812 604.131 245.761 604.142 243.182C604.131 241.068 604.693 239.222 605.83 237.642C606.977 236.062 608.551 234.83 610.551 233.943C612.551 233.057 614.824 232.614 617.369 232.614C619.96 232.614 622.222 233.057 624.153 233.943C626.097 234.83 627.608 236.062 628.688 237.642C629.767 239.222 630.324 241.051 630.358 243.131H623.284ZM647.493 268.511C644.845 268.511 642.555 267.949 640.624 266.824C638.703 265.687 637.22 264.108 636.175 262.085C635.129 260.051 634.607 257.693 634.607 255.011C634.607 252.307 635.129 249.943 636.175 247.92C637.22 245.886 638.703 244.307 640.624 243.182C642.555 242.045 644.845 241.477 647.493 241.477C650.141 241.477 652.425 242.045 654.345 243.182C656.277 244.307 657.766 245.886 658.811 247.92C659.857 249.943 660.379 252.307 660.379 255.011C660.379 257.693 659.857 260.051 658.811 262.085C657.766 264.108 656.277 265.687 654.345 266.824C652.425 267.949 650.141 268.511 647.493 268.511ZM647.527 262.886C648.732 262.886 649.737 262.545 650.544 261.864C651.351 261.17 651.959 260.227 652.368 259.034C652.788 257.841 652.999 256.483 652.999 254.96C652.999 253.438 652.788 252.08 652.368 250.886C651.959 249.693 651.351 248.75 650.544 248.057C649.737 247.364 648.732 247.017 647.527 247.017C646.311 247.017 645.288 247.364 644.459 248.057C643.641 248.75 643.021 249.693 642.601 250.886C642.192 252.08 641.987 253.438 641.987 254.96C641.987 256.483 642.192 257.841 642.601 259.034C643.021 260.227 643.641 261.17 644.459 261.864C645.288 262.545 646.311 262.886 647.527 262.886ZM676.93 268.511C674.249 268.511 671.942 267.943 670.01 266.807C668.089 265.659 666.612 264.068 665.578 262.034C664.555 260 664.044 257.659 664.044 255.011C664.044 252.33 664.561 249.977 665.595 247.955C666.641 245.92 668.124 244.335 670.044 243.199C671.964 242.051 674.249 241.477 676.896 241.477C679.18 241.477 681.18 241.892 682.896 242.722C684.612 243.551 685.97 244.716 686.97 246.216C687.97 247.716 688.521 249.477 688.624 251.5H681.771C681.578 250.193 681.067 249.142 680.237 248.347C679.419 247.54 678.345 247.136 677.016 247.136C675.891 247.136 674.908 247.443 674.067 248.057C673.237 248.659 672.589 249.54 672.124 250.699C671.658 251.858 671.425 253.261 671.425 254.909C671.425 256.58 671.652 258 672.107 259.17C672.572 260.341 673.226 261.233 674.067 261.847C674.908 262.46 675.891 262.767 677.016 262.767C677.845 262.767 678.589 262.597 679.249 262.256C679.919 261.915 680.47 261.42 680.902 260.773C681.345 260.114 681.635 259.324 681.771 258.403H688.624C688.51 260.403 687.964 262.165 686.987 263.688C686.021 265.199 684.686 266.381 682.982 267.233C681.277 268.085 679.26 268.511 676.93 268.511ZM693.273 268V241.818H700.534V268H693.273ZM696.92 238.443C695.841 238.443 694.915 238.085 694.142 237.369C693.381 236.642 693 235.773 693 234.761C693 233.761 693.381 232.903 694.142 232.188C694.915 231.46 695.841 231.097 696.92 231.097C698 231.097 698.92 231.46 699.682 232.188C700.455 232.903 700.841 233.761 700.841 234.761C700.841 235.773 700.455 236.642 699.682 237.369C698.92 238.085 698 238.443 696.92 238.443ZM713.817 268.494C712.146 268.494 710.658 268.205 709.351 267.625C708.044 267.034 707.01 266.165 706.249 265.017C705.499 263.858 705.124 262.415 705.124 260.688C705.124 259.233 705.391 258.011 705.925 257.023C706.459 256.034 707.186 255.239 708.107 254.636C709.027 254.034 710.072 253.58 711.243 253.273C712.425 252.966 713.663 252.75 714.959 252.625C716.482 252.466 717.709 252.318 718.641 252.182C719.572 252.034 720.249 251.818 720.669 251.534C721.089 251.25 721.3 250.83 721.3 250.273V250.17C721.3 249.091 720.959 248.256 720.277 247.665C719.607 247.074 718.652 246.778 717.413 246.778C716.107 246.778 715.067 247.068 714.294 247.648C713.521 248.216 713.01 248.932 712.76 249.795L706.044 249.25C706.385 247.659 707.055 246.284 708.055 245.125C709.055 243.955 710.345 243.057 711.925 242.432C713.516 241.795 715.357 241.477 717.447 241.477C718.902 241.477 720.294 241.648 721.624 241.989C722.964 242.33 724.152 242.858 725.186 243.574C726.232 244.29 727.055 245.21 727.658 246.335C728.26 247.449 728.561 248.784 728.561 250.341V268H721.675V264.369H721.47C721.05 265.188 720.487 265.909 719.783 266.534C719.078 267.148 718.232 267.631 717.243 267.983C716.254 268.324 715.112 268.494 713.817 268.494ZM715.896 263.483C716.964 263.483 717.908 263.273 718.726 262.852C719.544 262.42 720.186 261.841 720.652 261.114C721.118 260.386 721.351 259.562 721.351 258.642V255.864C721.124 256.011 720.811 256.148 720.413 256.273C720.027 256.386 719.589 256.494 719.101 256.597C718.612 256.687 718.124 256.773 717.635 256.852C717.146 256.92 716.703 256.983 716.305 257.04C715.453 257.165 714.709 257.364 714.072 257.636C713.436 257.909 712.942 258.278 712.589 258.744C712.237 259.199 712.061 259.767 712.061 260.449C712.061 261.438 712.419 262.193 713.135 262.716C713.862 263.227 714.783 263.483 715.896 263.483ZM741.456 233.091V268H734.195V233.091H741.456ZM447.034 291.091H456.136L465.75 314.545H466.159L475.773 291.091H484.875V326H477.716V303.278H477.426L468.392 325.83H463.517L454.483 303.193H454.193V326H447.034V291.091ZM502.751 326.511C500.058 326.511 497.74 325.966 495.797 324.875C493.865 323.773 492.376 322.216 491.331 320.205C490.286 318.182 489.763 315.79 489.763 313.028C489.763 310.335 490.286 307.972 491.331 305.938C492.376 303.903 493.848 302.318 495.746 301.182C497.655 300.045 499.893 299.477 502.462 299.477C504.189 299.477 505.797 299.756 507.286 300.312C508.786 300.858 510.092 301.682 511.206 302.784C512.331 303.886 513.206 305.273 513.831 306.943C514.456 308.602 514.768 310.545 514.768 312.773V314.767H492.661V310.267H507.933C507.933 309.222 507.706 308.295 507.251 307.489C506.797 306.682 506.166 306.051 505.359 305.597C504.564 305.131 503.638 304.898 502.581 304.898C501.479 304.898 500.501 305.153 499.649 305.665C498.808 306.165 498.149 306.841 497.672 307.693C497.195 308.534 496.95 309.472 496.939 310.506V314.784C496.939 316.08 497.178 317.199 497.655 318.142C498.143 319.085 498.831 319.812 499.717 320.324C500.604 320.835 501.655 321.091 502.871 321.091C503.678 321.091 504.416 320.977 505.087 320.75C505.757 320.523 506.331 320.182 506.808 319.727C507.286 319.273 507.649 318.716 507.899 318.057L514.615 318.5C514.274 320.114 513.575 321.523 512.518 322.727C511.473 323.92 510.121 324.852 508.462 325.523C506.814 326.182 504.911 326.511 502.751 326.511ZM529.155 326.426C527.166 326.426 525.365 325.915 523.751 324.892C522.149 323.858 520.876 322.341 519.933 320.341C519.001 318.33 518.536 315.864 518.536 312.943C518.536 309.943 519.018 307.449 519.984 305.46C520.95 303.46 522.234 301.966 523.837 300.977C525.45 299.977 527.217 299.477 529.138 299.477C530.604 299.477 531.825 299.727 532.803 300.227C533.791 300.716 534.587 301.33 535.189 302.068C535.803 302.795 536.268 303.511 536.587 304.216H536.808V291.091H544.053V326H536.893V321.807H536.587C536.246 322.534 535.763 323.256 535.138 323.972C534.524 324.676 533.723 325.261 532.734 325.727C531.757 326.193 530.564 326.426 529.155 326.426ZM531.456 320.648C532.626 320.648 533.615 320.33 534.422 319.693C535.24 319.045 535.865 318.142 536.297 316.983C536.74 315.824 536.962 314.466 536.962 312.909C536.962 311.352 536.746 310 536.314 308.852C535.882 307.705 535.257 306.818 534.439 306.193C533.621 305.568 532.626 305.256 531.456 305.256C530.263 305.256 529.257 305.58 528.439 306.227C527.621 306.875 527.001 307.773 526.581 308.92C526.161 310.068 525.95 311.398 525.95 312.909C525.95 314.432 526.161 315.778 526.581 316.949C527.013 318.108 527.632 319.017 528.439 319.676C529.257 320.324 530.263 320.648 531.456 320.648ZM550.023 326V299.818H557.284V326H550.023ZM553.67 296.443C552.591 296.443 551.665 296.085 550.892 295.369C550.131 294.642 549.75 293.773 549.75 292.761C549.75 291.761 550.131 290.903 550.892 290.188C551.665 289.46 552.591 289.097 553.67 289.097C554.75 289.097 555.67 289.46 556.432 290.188C557.205 290.903 557.591 291.761 557.591 292.761C557.591 293.773 557.205 294.642 556.432 295.369C555.67 296.085 554.75 296.443 553.67 296.443ZM570.567 326.494C568.896 326.494 567.408 326.205 566.101 325.625C564.794 325.034 563.76 324.165 562.999 323.017C562.249 321.858 561.874 320.415 561.874 318.688C561.874 317.233 562.141 316.011 562.675 315.023C563.209 314.034 563.936 313.239 564.857 312.636C565.777 312.034 566.822 311.58 567.993 311.273C569.175 310.966 570.413 310.75 571.709 310.625C573.232 310.466 574.459 310.318 575.391 310.182C576.322 310.034 576.999 309.818 577.419 309.534C577.839 309.25 578.05 308.83 578.05 308.273V308.17C578.05 307.091 577.709 306.256 577.027 305.665C576.357 305.074 575.402 304.778 574.163 304.778C572.857 304.778 571.817 305.068 571.044 305.648C570.271 306.216 569.76 306.932 569.51 307.795L562.794 307.25C563.135 305.659 563.805 304.284 564.805 303.125C565.805 301.955 567.095 301.057 568.675 300.432C570.266 299.795 572.107 299.477 574.197 299.477C575.652 299.477 577.044 299.648 578.374 299.989C579.714 300.33 580.902 300.858 581.936 301.574C582.982 302.29 583.805 303.21 584.408 304.335C585.01 305.449 585.311 306.784 585.311 308.341V326H578.425V322.369H578.22C577.8 323.188 577.237 323.909 576.533 324.534C575.828 325.148 574.982 325.631 573.993 325.983C573.004 326.324 571.862 326.494 570.567 326.494ZM572.646 321.483C573.714 321.483 574.658 321.273 575.476 320.852C576.294 320.42 576.936 319.841 577.402 319.114C577.868 318.386 578.101 317.562 578.101 316.642V313.864C577.874 314.011 577.561 314.148 577.163 314.273C576.777 314.386 576.339 314.494 575.851 314.597C575.362 314.687 574.874 314.773 574.385 314.852C573.896 314.92 573.453 314.983 573.055 315.04C572.203 315.165 571.459 315.364 570.822 315.636C570.186 315.909 569.692 316.278 569.339 316.744C568.987 317.199 568.811 317.767 568.811 318.449C568.811 319.438 569.169 320.193 569.885 320.716C570.612 321.227 571.533 321.483 572.646 321.483ZM602.19 326V291.091H615.963C618.611 291.091 620.866 291.597 622.73 292.608C624.594 293.608 626.014 295 626.991 296.784C627.98 298.557 628.474 300.602 628.474 302.92C628.474 305.239 627.974 307.284 626.974 309.057C625.974 310.83 624.526 312.21 622.628 313.199C620.741 314.187 618.457 314.682 615.776 314.682H606.997V308.767H614.582C616.003 308.767 617.173 308.523 618.094 308.034C619.026 307.534 619.719 306.847 620.173 305.972C620.639 305.085 620.872 304.068 620.872 302.92C620.872 301.761 620.639 300.75 620.173 299.886C619.719 299.011 619.026 298.335 618.094 297.858C617.162 297.369 615.98 297.125 614.548 297.125H609.571V326H602.19ZM640.393 291.091V326H633.132V291.091H640.393ZM653.676 326.494C652.006 326.494 650.517 326.205 649.21 325.625C647.903 325.034 646.869 324.165 646.108 323.017C645.358 321.858 644.983 320.415 644.983 318.688C644.983 317.233 645.25 316.011 645.784 315.023C646.318 314.034 647.045 313.239 647.966 312.636C648.886 312.034 649.932 311.58 651.102 311.273C652.284 310.966 653.523 310.75 654.818 310.625C656.341 310.466 657.568 310.318 658.5 310.182C659.432 310.034 660.108 309.818 660.528 309.534C660.949 309.25 661.159 308.83 661.159 308.273V308.17C661.159 307.091 660.818 306.256 660.136 305.665C659.466 305.074 658.511 304.778 657.273 304.778C655.966 304.778 654.926 305.068 654.153 305.648C653.381 306.216 652.869 306.932 652.619 307.795L645.903 307.25C646.244 305.659 646.915 304.284 647.915 303.125C648.915 301.955 650.205 301.057 651.784 300.432C653.375 299.795 655.216 299.477 657.307 299.477C658.761 299.477 660.153 299.648 661.483 299.989C662.824 300.33 664.011 300.858 665.045 301.574C666.091 302.29 666.915 303.21 667.517 304.335C668.119 305.449 668.42 306.784 668.42 308.341V326H661.534V322.369H661.33C660.909 323.188 660.347 323.909 659.642 324.534C658.938 325.148 658.091 325.631 657.102 325.983C656.114 326.324 654.972 326.494 653.676 326.494ZM655.756 321.483C656.824 321.483 657.767 321.273 658.585 320.852C659.403 320.42 660.045 319.841 660.511 319.114C660.977 318.386 661.21 317.562 661.21 316.642V313.864C660.983 314.011 660.67 314.148 660.273 314.273C659.886 314.386 659.449 314.494 658.96 314.597C658.472 314.687 657.983 314.773 657.494 314.852C657.006 314.92 656.562 314.983 656.165 315.04C655.313 315.165 654.568 315.364 653.932 315.636C653.295 315.909 652.801 316.278 652.449 316.744C652.097 317.199 651.92 317.767 651.92 318.449C651.92 319.438 652.278 320.193 652.994 320.716C653.722 321.227 654.642 321.483 655.756 321.483ZM687.98 299.818V305.273H672.213V299.818H687.98ZM675.793 293.545H683.054V317.955C683.054 318.625 683.156 319.148 683.361 319.523C683.565 319.886 683.849 320.142 684.213 320.29C684.588 320.437 685.02 320.511 685.509 320.511C685.849 320.511 686.19 320.483 686.531 320.426C686.872 320.358 687.134 320.307 687.315 320.273L688.457 325.676C688.094 325.79 687.582 325.92 686.923 326.068C686.264 326.227 685.463 326.324 684.52 326.358C682.77 326.426 681.236 326.193 679.918 325.659C678.611 325.125 677.594 324.295 676.866 323.17C676.139 322.045 675.781 320.625 675.793 318.909V293.545ZM706.79 299.818V305.273H690.631V299.818H706.79ZM694.33 326V297.926C694.33 296.028 694.699 294.455 695.438 293.205C696.188 291.955 697.21 291.017 698.506 290.392C699.801 289.767 701.273 289.455 702.92 289.455C704.034 289.455 705.051 289.54 705.972 289.71C706.903 289.881 707.597 290.034 708.051 290.17L706.756 295.625C706.472 295.534 706.119 295.449 705.699 295.369C705.29 295.29 704.869 295.25 704.438 295.25C703.369 295.25 702.625 295.5 702.205 296C701.784 296.489 701.574 297.176 701.574 298.062V326H694.33ZM722.118 326.511C719.47 326.511 717.18 325.949 715.249 324.824C713.328 323.687 711.845 322.108 710.8 320.085C709.754 318.051 709.232 315.693 709.232 313.011C709.232 310.307 709.754 307.943 710.8 305.92C711.845 303.886 713.328 302.307 715.249 301.182C717.18 300.045 719.47 299.477 722.118 299.477C724.766 299.477 727.05 300.045 728.97 301.182C730.902 302.307 732.391 303.886 733.436 305.92C734.482 307.943 735.004 310.307 735.004 313.011C735.004 315.693 734.482 318.051 733.436 320.085C732.391 322.108 730.902 323.687 728.97 324.824C727.05 325.949 724.766 326.511 722.118 326.511ZM722.152 320.886C723.357 320.886 724.362 320.545 725.169 319.864C725.976 319.17 726.584 318.227 726.993 317.034C727.413 315.841 727.624 314.483 727.624 312.96C727.624 311.438 727.413 310.08 726.993 308.886C726.584 307.693 725.976 306.75 725.169 306.057C724.362 305.364 723.357 305.017 722.152 305.017C720.936 305.017 719.913 305.364 719.084 306.057C718.266 306.75 717.646 307.693 717.226 308.886C716.817 310.08 716.612 311.438 716.612 312.96C716.612 314.483 716.817 315.841 717.226 317.034C717.646 318.227 718.266 319.17 719.084 319.864C719.913 320.545 720.936 320.886 722.152 320.886ZM739.726 326V299.818H746.766V304.386H747.038C747.516 302.761 748.317 301.534 749.442 300.705C750.567 299.864 751.862 299.443 753.328 299.443C753.692 299.443 754.084 299.466 754.504 299.511C754.925 299.557 755.294 299.619 755.612 299.699V306.142C755.271 306.04 754.8 305.949 754.197 305.869C753.595 305.79 753.044 305.75 752.544 305.75C751.476 305.75 750.521 305.983 749.68 306.449C748.851 306.903 748.192 307.54 747.703 308.358C747.226 309.176 746.987 310.119 746.987 311.188V326H739.726ZM759.366 326V299.818H766.287V304.438H766.594C767.139 302.903 768.048 301.693 769.321 300.807C770.594 299.92 772.116 299.477 773.889 299.477C775.685 299.477 777.213 299.926 778.474 300.824C779.736 301.71 780.577 302.915 780.997 304.438H781.27C781.804 302.938 782.77 301.739 784.168 300.841C785.577 299.932 787.241 299.477 789.162 299.477C791.605 299.477 793.588 300.256 795.111 301.812C796.645 303.358 797.412 305.551 797.412 308.392V326H790.168V309.824C790.168 308.369 789.781 307.278 789.009 306.551C788.236 305.824 787.27 305.46 786.111 305.46C784.793 305.46 783.764 305.881 783.026 306.722C782.287 307.551 781.918 308.648 781.918 310.011V326H774.878V309.67C774.878 308.386 774.509 307.364 773.77 306.602C773.043 305.841 772.082 305.46 770.889 305.46C770.082 305.46 769.355 305.665 768.707 306.074C768.071 306.472 767.565 307.034 767.19 307.761C766.815 308.477 766.628 309.318 766.628 310.284V326H759.366ZM460.824 357.818V363.273H445.057V357.818H460.824ZM448.636 351.545H455.898V375.955C455.898 376.625 456 377.148 456.205 377.523C456.409 377.886 456.693 378.142 457.057 378.29C457.432 378.437 457.864 378.511 458.352 378.511C458.693 378.511 459.034 378.483 459.375 378.426C459.716 378.358 459.977 378.307 460.159 378.273L461.301 383.676C460.938 383.79 460.426 383.92 459.767 384.068C459.108 384.227 458.307 384.324 457.364 384.358C455.614 384.426 454.08 384.193 452.761 383.659C451.455 383.125 450.438 382.295 449.71 381.17C448.983 380.045 448.625 378.625 448.636 376.909V351.545ZM473.378 368.864V384H466.116V349.091H473.173V362.438H473.48C474.071 360.892 475.026 359.682 476.344 358.807C477.662 357.92 479.315 357.477 481.304 357.477C483.122 357.477 484.707 357.875 486.06 358.67C487.423 359.455 488.48 360.585 489.23 362.062C489.991 363.528 490.366 365.284 490.355 367.33V384H483.094V368.625C483.105 367.011 482.696 365.756 481.866 364.858C481.048 363.96 479.901 363.511 478.423 363.511C477.435 363.511 476.56 363.722 475.798 364.142C475.048 364.562 474.457 365.176 474.026 365.983C473.605 366.778 473.389 367.739 473.378 368.864ZM503.536 384.494C501.865 384.494 500.376 384.205 499.07 383.625C497.763 383.034 496.729 382.165 495.967 381.017C495.217 379.858 494.842 378.415 494.842 376.688C494.842 375.233 495.109 374.011 495.643 373.023C496.178 372.034 496.905 371.239 497.825 370.636C498.746 370.034 499.791 369.58 500.962 369.273C502.143 368.966 503.382 368.75 504.678 368.625C506.2 368.466 507.428 368.318 508.359 368.182C509.291 368.034 509.967 367.818 510.388 367.534C510.808 367.25 511.018 366.83 511.018 366.273V366.17C511.018 365.091 510.678 364.256 509.996 363.665C509.325 363.074 508.371 362.778 507.132 362.778C505.825 362.778 504.786 363.068 504.013 363.648C503.24 364.216 502.729 364.932 502.479 365.795L495.763 365.25C496.104 363.659 496.774 362.284 497.774 361.125C498.774 359.955 500.064 359.057 501.643 358.432C503.234 357.795 505.075 357.477 507.166 357.477C508.621 357.477 510.013 357.648 511.342 357.989C512.683 358.33 513.871 358.858 514.905 359.574C515.95 360.29 516.774 361.21 517.376 362.335C517.979 363.449 518.28 364.784 518.28 366.341V384H511.393V380.369H511.189C510.768 381.188 510.206 381.909 509.501 382.534C508.797 383.148 507.95 383.631 506.962 383.983C505.973 384.324 504.831 384.494 503.536 384.494ZM505.615 379.483C506.683 379.483 507.626 379.273 508.445 378.852C509.263 378.42 509.905 377.841 510.371 377.114C510.837 376.386 511.07 375.562 511.07 374.642V371.864C510.842 372.011 510.53 372.148 510.132 372.273C509.746 372.386 509.308 372.494 508.82 372.597C508.331 372.687 507.842 372.773 507.354 372.852C506.865 372.92 506.422 372.983 506.024 373.04C505.172 373.165 504.428 373.364 503.791 373.636C503.155 373.909 502.661 374.278 502.308 374.744C501.956 375.199 501.78 375.767 501.78 376.449C501.78 377.438 502.138 378.193 502.854 378.716C503.581 379.227 504.501 379.483 505.615 379.483ZM537.839 357.818V363.273H522.072V357.818H537.839ZM525.652 351.545H532.913V375.955C532.913 376.625 533.016 377.148 533.22 377.523C533.425 377.886 533.709 378.142 534.072 378.29C534.447 378.437 534.879 378.511 535.368 378.511C535.709 378.511 536.05 378.483 536.391 378.426C536.732 378.358 536.993 378.307 537.175 378.273L538.317 383.676C537.953 383.79 537.442 383.92 536.783 384.068C536.124 384.227 535.322 384.324 534.379 384.358C532.629 384.426 531.095 384.193 529.777 383.659C528.47 383.125 527.453 382.295 526.726 381.17C525.999 380.045 525.641 378.625 525.652 376.909V351.545ZM561.145 384.494C559.474 384.494 557.986 384.205 556.679 383.625C555.372 383.034 554.338 382.165 553.577 381.017C552.827 379.858 552.452 378.415 552.452 376.688C552.452 375.233 552.719 374.011 553.253 373.023C553.787 372.034 554.514 371.239 555.435 370.636C556.355 370.034 557.401 369.58 558.571 369.273C559.753 368.966 560.991 368.75 562.287 368.625C563.81 368.466 565.037 368.318 565.969 368.182C566.901 368.034 567.577 367.818 567.997 367.534C568.418 367.25 568.628 366.83 568.628 366.273V366.17C568.628 365.091 568.287 364.256 567.605 363.665C566.935 363.074 565.98 362.778 564.741 362.778C563.435 362.778 562.395 363.068 561.622 363.648C560.849 364.216 560.338 364.932 560.088 365.795L553.372 365.25C553.713 363.659 554.384 362.284 555.384 361.125C556.384 359.955 557.673 359.057 559.253 358.432C560.844 357.795 562.685 357.477 564.776 357.477C566.23 357.477 567.622 357.648 568.952 357.989C570.293 358.33 571.48 358.858 572.514 359.574C573.56 360.29 574.384 361.21 574.986 362.335C575.588 363.449 575.889 364.784 575.889 366.341V384H569.003V380.369H568.798C568.378 381.188 567.815 381.909 567.111 382.534C566.406 383.148 565.56 383.631 564.571 383.983C563.582 384.324 562.44 384.494 561.145 384.494ZM563.224 379.483C564.293 379.483 565.236 379.273 566.054 378.852C566.872 378.42 567.514 377.841 567.98 377.114C568.446 376.386 568.679 375.562 568.679 374.642V371.864C568.452 372.011 568.139 372.148 567.741 372.273C567.355 372.386 566.918 372.494 566.429 372.597C565.94 372.687 565.452 372.773 564.963 372.852C564.474 372.92 564.031 372.983 563.634 373.04C562.781 373.165 562.037 373.364 561.401 373.636C560.764 373.909 560.27 374.278 559.918 374.744C559.565 375.199 559.389 375.767 559.389 376.449C559.389 377.438 559.747 378.193 560.463 378.716C561.19 379.227 562.111 379.483 563.224 379.483ZM588.784 349.091V384H581.523V349.091H588.784ZM601.862 349.091V384H594.601V349.091H601.862ZM619.509 384.511C616.861 384.511 614.571 383.949 612.639 382.824C610.719 381.687 609.236 380.108 608.19 378.085C607.145 376.051 606.622 373.693 606.622 371.011C606.622 368.307 607.145 365.943 608.19 363.92C609.236 361.886 610.719 360.307 612.639 359.182C614.571 358.045 616.861 357.477 619.509 357.477C622.156 357.477 624.44 358.045 626.361 359.182C628.293 360.307 629.781 361.886 630.827 363.92C631.872 365.943 632.395 368.307 632.395 371.011C632.395 373.693 631.872 376.051 630.827 378.085C629.781 380.108 628.293 381.687 626.361 382.824C624.44 383.949 622.156 384.511 619.509 384.511ZM619.543 378.886C620.747 378.886 621.753 378.545 622.56 377.864C623.366 377.17 623.974 376.227 624.384 375.034C624.804 373.841 625.014 372.483 625.014 370.96C625.014 369.438 624.804 368.08 624.384 366.886C623.974 365.693 623.366 364.75 622.56 364.057C621.753 363.364 620.747 363.017 619.543 363.017C618.327 363.017 617.304 363.364 616.474 364.057C615.656 364.75 615.037 365.693 614.616 366.886C614.207 368.08 614.003 369.438 614.003 370.96C614.003 372.483 614.207 373.841 614.616 375.034C615.037 376.227 615.656 377.17 616.474 377.864C617.304 378.545 618.327 378.886 619.543 378.886ZM641.625 384L634.5 357.818H641.847L645.903 375.409H646.142L650.369 357.818H657.58L661.875 375.307H662.097L666.085 357.818H673.415L666.307 384H658.619L654.119 367.534H653.795L649.295 384H641.625ZM699.072 365.284L692.425 365.693C692.311 365.125 692.067 364.614 691.692 364.159C691.317 363.693 690.822 363.324 690.209 363.051C689.607 362.767 688.885 362.625 688.044 362.625C686.919 362.625 685.97 362.864 685.197 363.341C684.425 363.807 684.038 364.432 684.038 365.216C684.038 365.841 684.288 366.369 684.788 366.801C685.288 367.233 686.146 367.58 687.362 367.841L692.101 368.795C694.646 369.318 696.544 370.159 697.794 371.318C699.044 372.477 699.669 374 699.669 375.886C699.669 377.602 699.163 379.108 698.152 380.403C697.152 381.699 695.777 382.71 694.027 383.438C692.288 384.153 690.283 384.511 688.01 384.511C684.544 384.511 681.783 383.79 679.726 382.347C677.68 380.892 676.482 378.915 676.129 376.415L683.271 376.04C683.487 377.097 684.01 377.903 684.839 378.46C685.669 379.006 686.732 379.278 688.027 379.278C689.3 379.278 690.322 379.034 691.095 378.545C691.879 378.045 692.277 377.403 692.288 376.619C692.277 375.96 691.999 375.42 691.453 375C690.908 374.568 690.067 374.239 688.93 374.011L684.396 373.108C681.839 372.597 679.936 371.71 678.686 370.449C677.447 369.187 676.828 367.58 676.828 365.625C676.828 363.943 677.283 362.494 678.192 361.278C679.112 360.062 680.402 359.125 682.061 358.466C683.732 357.807 685.686 357.477 687.925 357.477C691.232 357.477 693.834 358.176 695.732 359.574C697.641 360.972 698.754 362.875 699.072 365.284ZM712.134 379.227L711.946 381.102C711.798 382.602 711.514 384.097 711.094 385.585C710.685 387.085 710.253 388.443 709.798 389.659C709.355 390.875 708.997 391.83 708.724 392.523H704.02C704.19 391.852 704.423 390.915 704.719 389.71C705.014 388.517 705.293 387.176 705.554 385.688C705.815 384.199 705.98 382.682 706.048 381.136L706.134 379.227H712.134ZM468.682 423.284L462.034 423.693C461.92 423.125 461.676 422.614 461.301 422.159C460.926 421.693 460.432 421.324 459.818 421.051C459.216 420.767 458.494 420.625 457.653 420.625C456.528 420.625 455.58 420.864 454.807 421.341C454.034 421.807 453.648 422.432 453.648 423.216C453.648 423.841 453.898 424.369 454.398 424.801C454.898 425.233 455.756 425.58 456.972 425.841L461.71 426.795C464.256 427.318 466.153 428.159 467.403 429.318C468.653 430.477 469.278 432 469.278 433.886C469.278 435.602 468.773 437.108 467.761 438.403C466.761 439.699 465.386 440.71 463.636 441.438C461.898 442.153 459.892 442.511 457.619 442.511C454.153 442.511 451.392 441.79 449.335 440.347C447.29 438.892 446.091 436.915 445.739 434.415L452.881 434.04C453.097 435.097 453.619 435.903 454.449 436.46C455.278 437.006 456.341 437.278 457.636 437.278C458.909 437.278 459.932 437.034 460.705 436.545C461.489 436.045 461.886 435.403 461.898 434.619C461.886 433.96 461.608 433.42 461.062 433C460.517 432.568 459.676 432.239 458.54 432.011L454.006 431.108C451.449 430.597 449.545 429.71 448.295 428.449C447.057 427.187 446.438 425.58 446.438 423.625C446.438 421.943 446.892 420.494 447.801 419.278C448.722 418.062 450.011 417.125 451.67 416.466C453.341 415.807 455.295 415.477 457.534 415.477C460.841 415.477 463.443 416.176 465.341 417.574C467.25 418.972 468.364 420.875 468.682 423.284ZM485.783 442.511C483.089 442.511 480.771 441.966 478.828 440.875C476.896 439.773 475.408 438.216 474.362 436.205C473.317 434.182 472.794 431.79 472.794 429.028C472.794 426.335 473.317 423.972 474.362 421.938C475.408 419.903 476.879 418.318 478.777 417.182C480.686 416.045 482.925 415.477 485.493 415.477C487.22 415.477 488.828 415.756 490.317 416.312C491.817 416.858 493.124 417.682 494.237 418.784C495.362 419.886 496.237 421.273 496.862 422.943C497.487 424.602 497.8 426.545 497.8 428.773V430.767H475.692V426.267H490.964C490.964 425.222 490.737 424.295 490.283 423.489C489.828 422.682 489.197 422.051 488.391 421.597C487.595 421.131 486.669 420.898 485.612 420.898C484.51 420.898 483.533 421.153 482.68 421.665C481.839 422.165 481.18 422.841 480.703 423.693C480.226 424.534 479.982 425.472 479.97 426.506V430.784C479.97 432.08 480.209 433.199 480.686 434.142C481.175 435.085 481.862 435.812 482.749 436.324C483.635 436.835 484.686 437.091 485.902 437.091C486.709 437.091 487.447 436.977 488.118 436.75C488.788 436.523 489.362 436.182 489.839 435.727C490.317 435.273 490.68 434.716 490.93 434.057L497.646 434.5C497.305 436.114 496.607 437.523 495.55 438.727C494.504 439.92 493.152 440.852 491.493 441.523C489.845 442.182 487.942 442.511 485.783 442.511ZM514.368 442.511C511.686 442.511 509.379 441.943 507.447 440.807C505.527 439.659 504.05 438.068 503.016 436.034C501.993 434 501.482 431.659 501.482 429.011C501.482 426.33 501.999 423.977 503.033 421.955C504.078 419.92 505.561 418.335 507.482 417.199C509.402 416.051 511.686 415.477 514.334 415.477C516.618 415.477 518.618 415.892 520.334 416.722C522.05 417.551 523.408 418.716 524.408 420.216C525.408 421.716 525.959 423.477 526.061 425.5H519.209C519.016 424.193 518.504 423.142 517.675 422.347C516.857 421.54 515.783 421.136 514.453 421.136C513.328 421.136 512.345 421.443 511.504 422.057C510.675 422.659 510.027 423.54 509.561 424.699C509.095 425.858 508.862 427.261 508.862 428.909C508.862 430.58 509.089 432 509.544 433.17C510.01 434.341 510.663 435.233 511.504 435.847C512.345 436.46 513.328 436.767 514.453 436.767C515.283 436.767 516.027 436.597 516.686 436.256C517.357 435.915 517.908 435.42 518.339 434.773C518.783 434.114 519.072 433.324 519.209 432.403H526.061C525.947 434.403 525.402 436.165 524.425 437.688C523.459 439.199 522.124 440.381 520.419 441.233C518.714 442.085 516.697 442.511 514.368 442.511ZM547.5 430.852V415.818H554.761V442H547.79V437.244H547.517C546.926 438.778 545.943 440.011 544.568 440.943C543.205 441.875 541.54 442.341 539.574 442.341C537.824 442.341 536.284 441.943 534.955 441.148C533.625 440.352 532.585 439.222 531.835 437.756C531.097 436.29 530.722 434.534 530.71 432.489V415.818H537.972V431.193C537.983 432.739 538.398 433.96 539.216 434.858C540.034 435.756 541.131 436.205 542.506 436.205C543.381 436.205 544.199 436.006 544.96 435.608C545.722 435.199 546.335 434.597 546.801 433.801C547.278 433.006 547.511 432.023 547.5 430.852ZM560.57 442V415.818H567.609V420.386H567.882C568.359 418.761 569.161 417.534 570.286 416.705C571.411 415.864 572.706 415.443 574.172 415.443C574.536 415.443 574.928 415.466 575.348 415.511C575.768 415.557 576.138 415.619 576.456 415.699V422.142C576.115 422.04 575.643 421.949 575.041 421.869C574.439 421.79 573.888 421.75 573.388 421.75C572.32 421.75 571.365 421.983 570.524 422.449C569.695 422.903 569.036 423.54 568.547 424.358C568.07 425.176 567.831 426.119 567.831 427.188V442H560.57ZM590.923 442.511C588.23 442.511 585.912 441.966 583.969 440.875C582.037 439.773 580.548 438.216 579.503 436.205C578.457 434.182 577.935 431.79 577.935 429.028C577.935 426.335 578.457 423.972 579.503 421.938C580.548 419.903 582.02 418.318 583.918 417.182C585.827 416.045 588.065 415.477 590.634 415.477C592.361 415.477 593.969 415.756 595.457 416.312C596.957 416.858 598.264 417.682 599.378 418.784C600.503 419.886 601.378 421.273 602.003 422.943C602.628 424.602 602.94 426.545 602.94 428.773V430.767H580.832V426.267H596.105C596.105 425.222 595.878 424.295 595.423 423.489C594.969 422.682 594.338 422.051 593.531 421.597C592.736 421.131 591.81 420.898 590.753 420.898C589.651 420.898 588.673 421.153 587.821 421.665C586.98 422.165 586.321 422.841 585.844 423.693C585.366 424.534 585.122 425.472 585.111 426.506V430.784C585.111 432.08 585.349 433.199 585.827 434.142C586.315 435.085 587.003 435.812 587.889 436.324C588.776 436.835 589.827 437.091 591.043 437.091C591.849 437.091 592.588 436.977 593.259 436.75C593.929 436.523 594.503 436.182 594.98 435.727C595.457 435.273 595.821 434.716 596.071 434.057L602.787 434.5C602.446 436.114 601.747 437.523 600.69 438.727C599.645 439.92 598.293 440.852 596.634 441.523C594.986 442.182 593.082 442.511 590.923 442.511ZM615.571 437.227L615.384 439.102C615.236 440.602 614.952 442.097 614.531 443.585C614.122 445.085 613.69 446.443 613.236 447.659C612.793 448.875 612.435 449.83 612.162 450.523H607.457C607.628 449.852 607.861 448.915 608.156 447.71C608.452 446.517 608.73 445.176 608.991 443.688C609.253 442.199 609.418 440.682 609.486 439.136L609.571 437.227H615.571ZM645.759 415.818V421.273H629.599V415.818H645.759ZM633.298 442V413.926C633.298 412.028 633.668 410.455 634.406 409.205C635.156 407.955 636.179 407.017 637.474 406.392C638.77 405.767 640.241 405.455 641.889 405.455C643.003 405.455 644.02 405.54 644.94 405.71C645.872 405.881 646.565 406.034 647.02 406.17L645.724 411.625C645.44 411.534 645.088 411.449 644.668 411.369C644.259 411.29 643.838 411.25 643.406 411.25C642.338 411.25 641.594 411.5 641.173 412C640.753 412.489 640.543 413.176 640.543 414.062V442H633.298ZM656.723 442.494C655.053 442.494 653.564 442.205 652.257 441.625C650.95 441.034 649.916 440.165 649.155 439.017C648.405 437.858 648.03 436.415 648.03 434.688C648.03 433.233 648.297 432.011 648.831 431.023C649.365 430.034 650.092 429.239 651.013 428.636C651.933 428.034 652.979 427.58 654.149 427.273C655.331 426.966 656.57 426.75 657.865 426.625C659.388 426.466 660.615 426.318 661.547 426.182C662.479 426.034 663.155 425.818 663.575 425.534C663.996 425.25 664.206 424.83 664.206 424.273V424.17C664.206 423.091 663.865 422.256 663.183 421.665C662.513 421.074 661.558 420.778 660.32 420.778C659.013 420.778 657.973 421.068 657.2 421.648C656.428 422.216 655.916 422.932 655.666 423.795L648.95 423.25C649.291 421.659 649.962 420.284 650.962 419.125C651.962 417.955 653.251 417.057 654.831 416.432C656.422 415.795 658.263 415.477 660.354 415.477C661.808 415.477 663.2 415.648 664.53 415.989C665.871 416.33 667.058 416.858 668.092 417.574C669.138 418.29 669.962 419.21 670.564 420.335C671.166 421.449 671.467 422.784 671.467 424.341V442H664.581V438.369H664.376C663.956 439.188 663.393 439.909 662.689 440.534C661.984 441.148 661.138 441.631 660.149 441.983C659.161 442.324 658.018 442.494 656.723 442.494ZM658.803 437.483C659.871 437.483 660.814 437.273 661.632 436.852C662.45 436.42 663.092 435.841 663.558 435.114C664.024 434.386 664.257 433.562 664.257 432.642V429.864C664.03 430.011 663.717 430.148 663.32 430.273C662.933 430.386 662.496 430.494 662.007 430.597C661.518 430.687 661.03 430.773 660.541 430.852C660.053 430.92 659.609 430.983 659.212 431.04C658.359 431.165 657.615 431.364 656.979 431.636C656.342 431.909 655.848 432.278 655.496 432.744C655.143 433.199 654.967 433.767 654.967 434.449C654.967 435.438 655.325 436.193 656.041 436.716C656.768 437.227 657.689 437.483 658.803 437.483ZM698.885 423.284L692.237 423.693C692.124 423.125 691.879 422.614 691.504 422.159C691.129 421.693 690.635 421.324 690.021 421.051C689.419 420.767 688.697 420.625 687.857 420.625C686.732 420.625 685.783 420.864 685.01 421.341C684.237 421.807 683.851 422.432 683.851 423.216C683.851 423.841 684.101 424.369 684.601 424.801C685.101 425.233 685.959 425.58 687.175 425.841L691.913 426.795C694.459 427.318 696.357 428.159 697.607 429.318C698.857 430.477 699.482 432 699.482 433.886C699.482 435.602 698.976 437.108 697.964 438.403C696.964 439.699 695.589 440.71 693.839 441.438C692.101 442.153 690.095 442.511 687.822 442.511C684.357 442.511 681.595 441.79 679.538 440.347C677.493 438.892 676.294 436.915 675.942 434.415L683.084 434.04C683.3 435.097 683.822 435.903 684.652 436.46C685.482 437.006 686.544 437.278 687.839 437.278C689.112 437.278 690.135 437.034 690.908 436.545C691.692 436.045 692.089 435.403 692.101 434.619C692.089 433.96 691.811 433.42 691.266 433C690.72 432.568 689.879 432.239 688.743 432.011L684.209 431.108C681.652 430.597 679.749 429.71 678.499 428.449C677.26 427.187 676.641 425.58 676.641 423.625C676.641 421.943 677.095 420.494 678.004 419.278C678.925 418.062 680.214 417.125 681.874 416.466C683.544 415.807 685.499 415.477 687.737 415.477C691.044 415.477 693.646 416.176 695.544 417.574C697.453 418.972 698.567 420.875 698.885 423.284ZM717.98 415.818V421.273H702.213V415.818H717.98ZM705.793 409.545H713.054V433.955C713.054 434.625 713.156 435.148 713.361 435.523C713.565 435.886 713.849 436.142 714.213 436.29C714.588 436.437 715.02 436.511 715.509 436.511C715.849 436.511 716.19 436.483 716.531 436.426C716.872 436.358 717.134 436.307 717.315 436.273L718.457 441.676C718.094 441.79 717.582 441.92 716.923 442.068C716.264 442.227 715.463 442.324 714.52 442.358C712.77 442.426 711.236 442.193 709.918 441.659C708.611 441.125 707.594 440.295 706.866 439.17C706.139 438.045 705.781 436.625 705.793 434.909V409.545ZM730.602 437.227L730.415 439.102C730.267 440.602 729.983 442.097 729.562 443.585C729.153 445.085 728.722 446.443 728.267 447.659C727.824 448.875 727.466 449.83 727.193 450.523H722.489C722.659 449.852 722.892 448.915 723.188 447.71C723.483 446.517 723.761 445.176 724.023 443.688C724.284 442.199 724.449 440.682 724.517 439.136L724.602 437.227H730.602ZM454.364 500.494C452.693 500.494 451.205 500.205 449.898 499.625C448.591 499.034 447.557 498.165 446.795 497.017C446.045 495.858 445.67 494.415 445.67 492.688C445.67 491.233 445.938 490.011 446.472 489.023C447.006 488.034 447.733 487.239 448.653 486.636C449.574 486.034 450.619 485.58 451.79 485.273C452.972 484.966 454.21 484.75 455.506 484.625C457.028 484.466 458.256 484.318 459.188 484.182C460.119 484.034 460.795 483.818 461.216 483.534C461.636 483.25 461.847 482.83 461.847 482.273V482.17C461.847 481.091 461.506 480.256 460.824 479.665C460.153 479.074 459.199 478.778 457.96 478.778C456.653 478.778 455.614 479.068 454.841 479.648C454.068 480.216 453.557 480.932 453.307 481.795L446.591 481.25C446.932 479.659 447.602 478.284 448.602 477.125C449.602 475.955 450.892 475.057 452.472 474.432C454.063 473.795 455.903 473.477 457.994 473.477C459.449 473.477 460.841 473.648 462.17 473.989C463.511 474.33 464.699 474.858 465.733 475.574C466.778 476.29 467.602 477.21 468.205 478.335C468.807 479.449 469.108 480.784 469.108 482.341V500H462.222V496.369H462.017C461.597 497.188 461.034 497.909 460.33 498.534C459.625 499.148 458.778 499.631 457.79 499.983C456.801 500.324 455.659 500.494 454.364 500.494ZM456.443 495.483C457.511 495.483 458.455 495.273 459.273 494.852C460.091 494.42 460.733 493.841 461.199 493.114C461.665 492.386 461.898 491.562 461.898 490.642V487.864C461.67 488.011 461.358 488.148 460.96 488.273C460.574 488.386 460.136 488.494 459.648 488.597C459.159 488.687 458.67 488.773 458.182 488.852C457.693 488.92 457.25 488.983 456.852 489.04C456 489.165 455.256 489.364 454.619 489.636C453.983 489.909 453.489 490.278 453.136 490.744C452.784 491.199 452.608 491.767 452.608 492.449C452.608 493.438 452.966 494.193 453.682 494.716C454.409 495.227 455.33 495.483 456.443 495.483ZM482.003 484.864V500H474.741V473.818H481.662V478.438H481.969C482.548 476.915 483.52 475.71 484.884 474.824C486.247 473.926 487.901 473.477 489.844 473.477C491.662 473.477 493.247 473.875 494.599 474.67C495.952 475.466 497.003 476.602 497.753 478.08C498.503 479.545 498.878 481.295 498.878 483.33V500H491.616V484.625C491.628 483.023 491.219 481.773 490.389 480.875C489.56 479.966 488.418 479.511 486.963 479.511C485.986 479.511 485.122 479.722 484.372 480.142C483.634 480.562 483.054 481.176 482.634 481.983C482.224 482.778 482.014 483.739 482.003 484.864ZM514.249 500.426C512.26 500.426 510.459 499.915 508.845 498.892C507.243 497.858 505.97 496.341 505.027 494.341C504.095 492.33 503.629 489.864 503.629 486.943C503.629 483.943 504.112 481.449 505.078 479.46C506.044 477.46 507.328 475.966 508.93 474.977C510.544 473.977 512.311 473.477 514.232 473.477C515.697 473.477 516.919 473.727 517.896 474.227C518.885 474.716 519.68 475.33 520.283 476.068C520.896 476.795 521.362 477.511 521.68 478.216H521.902V465.091H529.146V500H521.987V495.807H521.68C521.339 496.534 520.857 497.256 520.232 497.972C519.618 498.676 518.817 499.261 517.828 499.727C516.851 500.193 515.658 500.426 514.249 500.426ZM516.55 494.648C517.72 494.648 518.709 494.33 519.516 493.693C520.334 493.045 520.959 492.142 521.391 490.983C521.834 489.824 522.055 488.466 522.055 486.909C522.055 485.352 521.839 484 521.408 482.852C520.976 481.705 520.351 480.818 519.533 480.193C518.714 479.568 517.72 479.256 516.55 479.256C515.357 479.256 514.351 479.58 513.533 480.227C512.714 480.875 512.095 481.773 511.675 482.92C511.254 484.068 511.044 485.398 511.044 486.909C511.044 488.432 511.254 489.778 511.675 490.949C512.107 492.108 512.726 493.017 513.533 493.676C514.351 494.324 515.357 494.648 516.55 494.648ZM553.487 484.864V500H546.226V473.818H553.146V478.438H553.453C554.033 476.915 555.004 475.71 556.368 474.824C557.732 473.926 559.385 473.477 561.328 473.477C563.146 473.477 564.732 473.875 566.084 474.67C567.436 475.466 568.487 476.602 569.237 478.08C569.987 479.545 570.362 481.295 570.362 483.33V500H563.101V484.625C563.112 483.023 562.703 481.773 561.874 480.875C561.044 479.966 559.902 479.511 558.447 479.511C557.47 479.511 556.607 479.722 555.857 480.142C555.118 480.562 554.538 481.176 554.118 481.983C553.709 482.778 553.499 483.739 553.487 484.864ZM587.915 500.511C585.267 500.511 582.977 499.949 581.045 498.824C579.125 497.687 577.642 496.108 576.597 494.085C575.551 492.051 575.028 489.693 575.028 487.011C575.028 484.307 575.551 481.943 576.597 479.92C577.642 477.886 579.125 476.307 581.045 475.182C582.977 474.045 585.267 473.477 587.915 473.477C590.562 473.477 592.847 474.045 594.767 475.182C596.699 476.307 598.188 477.886 599.233 479.92C600.278 481.943 600.801 484.307 600.801 487.011C600.801 489.693 600.278 492.051 599.233 494.085C598.188 496.108 596.699 497.687 594.767 498.824C592.847 499.949 590.562 500.511 587.915 500.511ZM587.949 494.886C589.153 494.886 590.159 494.545 590.966 493.864C591.773 493.17 592.381 492.227 592.79 491.034C593.21 489.841 593.42 488.483 593.42 486.96C593.42 485.438 593.21 484.08 592.79 482.886C592.381 481.693 591.773 480.75 590.966 480.057C590.159 479.364 589.153 479.017 587.949 479.017C586.733 479.017 585.71 479.364 584.881 480.057C584.063 480.75 583.443 481.693 583.023 482.886C582.614 484.08 582.409 485.438 582.409 486.96C582.409 488.483 582.614 489.841 583.023 491.034C583.443 492.227 584.063 493.17 584.881 493.864C585.71 494.545 586.733 494.886 587.949 494.886ZM458.727 558.511C456.045 558.511 453.739 557.943 451.807 556.807C449.886 555.659 448.409 554.068 447.375 552.034C446.352 550 445.841 547.659 445.841 545.011C445.841 542.33 446.358 539.977 447.392 537.955C448.438 535.92 449.92 534.335 451.841 533.199C453.761 532.051 456.045 531.477 458.693 531.477C460.977 531.477 462.977 531.892 464.693 532.722C466.409 533.551 467.767 534.716 468.767 536.216C469.767 537.716 470.318 539.477 470.42 541.5H463.568C463.375 540.193 462.864 539.142 462.034 538.347C461.216 537.54 460.142 537.136 458.812 537.136C457.688 537.136 456.705 537.443 455.864 538.057C455.034 538.659 454.386 539.54 453.92 540.699C453.455 541.858 453.222 543.261 453.222 544.909C453.222 546.58 453.449 548 453.903 549.17C454.369 550.341 455.023 551.233 455.864 551.847C456.705 552.46 457.688 552.767 458.812 552.767C459.642 552.767 460.386 552.597 461.045 552.256C461.716 551.915 462.267 551.42 462.699 550.773C463.142 550.114 463.432 549.324 463.568 548.403H470.42C470.307 550.403 469.761 552.165 468.784 553.688C467.818 555.199 466.483 556.381 464.778 557.233C463.074 558.085 461.057 558.511 458.727 558.511ZM487.001 558.511C484.308 558.511 481.99 557.966 480.047 556.875C478.115 555.773 476.626 554.216 475.581 552.205C474.536 550.182 474.013 547.79 474.013 545.028C474.013 542.335 474.536 539.972 475.581 537.938C476.626 535.903 478.098 534.318 479.996 533.182C481.905 532.045 484.143 531.477 486.712 531.477C488.439 531.477 490.047 531.756 491.536 532.312C493.036 532.858 494.342 533.682 495.456 534.784C496.581 535.886 497.456 537.273 498.081 538.943C498.706 540.602 499.018 542.545 499.018 544.773V546.767H476.911V542.267H492.183C492.183 541.222 491.956 540.295 491.501 539.489C491.047 538.682 490.416 538.051 489.609 537.597C488.814 537.131 487.888 536.898 486.831 536.898C485.729 536.898 484.751 537.153 483.899 537.665C483.058 538.165 482.399 538.841 481.922 539.693C481.445 540.534 481.2 541.472 481.189 542.506V546.784C481.189 548.08 481.428 549.199 481.905 550.142C482.393 551.085 483.081 551.812 483.967 552.324C484.854 552.835 485.905 553.091 487.121 553.091C487.928 553.091 488.666 552.977 489.337 552.75C490.007 552.523 490.581 552.182 491.058 551.727C491.536 551.273 491.899 550.716 492.149 550.057L498.865 550.5C498.524 552.114 497.825 553.523 496.768 554.727C495.723 555.92 494.371 556.852 492.712 557.523C491.064 558.182 489.161 558.511 487.001 558.511ZM511.018 542.864V558H503.757V531.818H510.678V536.438H510.984C511.564 534.915 512.536 533.71 513.899 532.824C515.263 531.926 516.916 531.477 518.859 531.477C520.678 531.477 522.263 531.875 523.615 532.67C524.967 533.466 526.018 534.602 526.768 536.08C527.518 537.545 527.893 539.295 527.893 541.33V558H520.632V542.625C520.643 541.023 520.234 539.773 519.405 538.875C518.575 537.966 517.433 537.511 515.979 537.511C515.001 537.511 514.138 537.722 513.388 538.142C512.649 538.562 512.07 539.176 511.649 539.983C511.24 540.778 511.03 541.739 511.018 542.864ZM545.446 558.511C542.764 558.511 540.457 557.943 538.526 556.807C536.605 555.659 535.128 554.068 534.094 552.034C533.071 550 532.56 547.659 532.56 545.011C532.56 542.33 533.077 539.977 534.111 537.955C535.156 535.92 536.639 534.335 538.56 533.199C540.48 532.051 542.764 531.477 545.412 531.477C547.696 531.477 549.696 531.892 551.412 532.722C553.128 533.551 554.486 534.716 555.486 536.216C556.486 537.716 557.037 539.477 557.139 541.5H550.287C550.094 540.193 549.582 539.142 548.753 538.347C547.935 537.54 546.861 537.136 545.531 537.136C544.406 537.136 543.423 537.443 542.582 538.057C541.753 538.659 541.105 539.54 540.639 540.699C540.173 541.858 539.94 543.261 539.94 544.909C539.94 546.58 540.168 548 540.622 549.17C541.088 550.341 541.741 551.233 542.582 551.847C543.423 552.46 544.406 552.767 545.531 552.767C546.361 552.767 547.105 552.597 547.764 552.256C548.435 551.915 548.986 551.42 549.418 550.773C549.861 550.114 550.151 549.324 550.287 548.403H557.139C557.026 550.403 556.48 552.165 555.503 553.688C554.537 555.199 553.202 556.381 551.497 557.233C549.793 558.085 547.776 558.511 545.446 558.511ZM573.618 558.511C570.97 558.511 568.68 557.949 566.749 556.824C564.828 555.687 563.345 554.108 562.3 552.085C561.254 550.051 560.732 547.693 560.732 545.011C560.732 542.307 561.254 539.943 562.3 537.92C563.345 535.886 564.828 534.307 566.749 533.182C568.68 532.045 570.97 531.477 573.618 531.477C576.266 531.477 578.55 532.045 580.47 533.182C582.402 534.307 583.891 535.886 584.936 537.92C585.982 539.943 586.504 542.307 586.504 545.011C586.504 547.693 585.982 550.051 584.936 552.085C583.891 554.108 582.402 555.687 580.47 556.824C578.55 557.949 576.266 558.511 573.618 558.511ZM573.652 552.886C574.857 552.886 575.862 552.545 576.669 551.864C577.476 551.17 578.084 550.227 578.493 549.034C578.913 547.841 579.124 546.483 579.124 544.96C579.124 543.438 578.913 542.08 578.493 540.886C578.084 539.693 577.476 538.75 576.669 538.057C575.862 537.364 574.857 537.017 573.652 537.017C572.436 537.017 571.413 537.364 570.584 538.057C569.766 538.75 569.146 539.693 568.726 540.886C568.317 542.08 568.112 543.438 568.112 544.96C568.112 546.483 568.317 547.841 568.726 549.034C569.146 550.227 569.766 551.17 570.584 551.864C571.413 552.545 572.436 552.886 573.652 552.886ZM591.226 558V531.818H598.266V536.386H598.538C599.016 534.761 599.817 533.534 600.942 532.705C602.067 531.864 603.362 531.443 604.828 531.443C605.192 531.443 605.584 531.466 606.004 531.511C606.425 531.557 606.794 531.619 607.112 531.699V538.142C606.771 538.04 606.3 537.949 605.697 537.869C605.095 537.79 604.544 537.75 604.044 537.75C602.976 537.75 602.021 537.983 601.18 538.449C600.351 538.903 599.692 539.54 599.203 540.358C598.726 541.176 598.487 542.119 598.487 543.188V558H591.226ZM632.651 539.284L626.003 539.693C625.889 539.125 625.645 538.614 625.27 538.159C624.895 537.693 624.401 537.324 623.787 537.051C623.185 536.767 622.463 536.625 621.622 536.625C620.497 536.625 619.548 536.864 618.776 537.341C618.003 537.807 617.616 538.432 617.616 539.216C617.616 539.841 617.866 540.369 618.366 540.801C618.866 541.233 619.724 541.58 620.94 541.841L625.679 542.795C628.224 543.318 630.122 544.159 631.372 545.318C632.622 546.477 633.247 548 633.247 549.886C633.247 551.602 632.741 553.108 631.73 554.403C630.73 555.699 629.355 556.71 627.605 557.438C625.866 558.153 623.861 558.511 621.588 558.511C618.122 558.511 615.361 557.79 613.304 556.347C611.259 554.892 610.06 552.915 609.707 550.415L616.849 550.04C617.065 551.097 617.588 551.903 618.418 552.46C619.247 553.006 620.31 553.278 621.605 553.278C622.878 553.278 623.901 553.034 624.673 552.545C625.457 552.045 625.855 551.403 625.866 550.619C625.855 549.96 625.577 549.42 625.031 549C624.486 548.568 623.645 548.239 622.509 548.011L617.974 547.108C615.418 546.597 613.514 545.71 612.264 544.449C611.026 543.187 610.406 541.58 610.406 539.625C610.406 537.943 610.861 536.494 611.77 535.278C612.69 534.062 613.98 533.125 615.639 532.466C617.31 531.807 619.264 531.477 621.503 531.477C624.81 531.477 627.412 532.176 629.31 533.574C631.219 534.972 632.332 536.875 632.651 539.284ZM645.081 542.864V558H637.82V523.091H644.876V536.438H645.183C645.774 534.892 646.729 533.682 648.047 532.807C649.365 531.92 651.018 531.477 653.007 531.477C654.825 531.477 656.411 531.875 657.763 532.67C659.126 533.455 660.183 534.585 660.933 536.062C661.695 537.528 662.07 539.284 662.058 541.33V558H654.797V542.625C654.808 541.011 654.399 539.756 653.57 538.858C652.751 537.96 651.604 537.511 650.126 537.511C649.138 537.511 648.263 537.722 647.501 538.142C646.751 538.562 646.161 539.176 645.729 539.983C645.308 540.778 645.092 541.739 645.081 542.864ZM667.773 558V531.818H675.034V558H667.773ZM671.42 528.443C670.341 528.443 669.415 528.085 668.642 527.369C667.881 526.642 667.5 525.773 667.5 524.761C667.5 523.761 667.881 522.903 668.642 522.188C669.415 521.46 670.341 521.097 671.42 521.097C672.5 521.097 673.42 521.46 674.182 522.188C674.955 522.903 675.341 523.761 675.341 524.761C675.341 525.773 674.955 526.642 674.182 527.369C673.42 528.085 672.5 528.443 671.42 528.443ZM680.851 567.818V531.818H688.01V536.216H688.334C688.652 535.511 689.112 534.795 689.714 534.068C690.328 533.33 691.124 532.716 692.101 532.227C693.089 531.727 694.317 531.477 695.783 531.477C697.692 531.477 699.453 531.977 701.067 532.977C702.68 533.966 703.97 535.46 704.936 537.46C705.902 539.449 706.385 541.943 706.385 544.943C706.385 547.864 705.913 550.33 704.97 552.341C704.038 554.341 702.766 555.858 701.152 556.892C699.55 557.915 697.754 558.426 695.766 558.426C694.357 558.426 693.158 558.193 692.169 557.727C691.192 557.261 690.391 556.676 689.766 555.972C689.141 555.256 688.663 554.534 688.334 553.807H688.112V567.818H680.851ZM687.959 544.909C687.959 546.466 688.175 547.824 688.607 548.983C689.038 550.142 689.663 551.045 690.482 551.693C691.3 552.33 692.294 552.648 693.464 552.648C694.646 552.648 695.646 552.324 696.464 551.676C697.283 551.017 697.902 550.108 698.322 548.949C698.754 547.778 698.97 546.432 698.97 544.909C698.97 543.398 698.76 542.068 698.339 540.92C697.919 539.773 697.3 538.875 696.482 538.227C695.663 537.58 694.658 537.256 693.464 537.256C692.283 537.256 691.283 537.568 690.464 538.193C689.658 538.818 689.038 539.705 688.607 540.852C688.175 542 687.959 543.352 687.959 544.909ZM446.898 625.818V589.818H454.057V594.216H454.381C454.699 593.511 455.159 592.795 455.761 592.068C456.375 591.33 457.17 590.716 458.148 590.227C459.136 589.727 460.364 589.477 461.83 589.477C463.739 589.477 465.5 589.977 467.114 590.977C468.727 591.966 470.017 593.46 470.983 595.46C471.949 597.449 472.432 599.943 472.432 602.943C472.432 605.864 471.96 608.33 471.017 610.341C470.085 612.341 468.813 613.858 467.199 614.892C465.597 615.915 463.801 616.426 461.812 616.426C460.403 616.426 459.205 616.193 458.216 615.727C457.239 615.261 456.438 614.676 455.812 613.972C455.188 613.256 454.71 612.534 454.381 611.807H454.159V625.818H446.898ZM454.006 602.909C454.006 604.466 454.222 605.824 454.653 606.983C455.085 608.142 455.71 609.045 456.528 609.693C457.347 610.33 458.341 610.648 459.511 610.648C460.693 610.648 461.693 610.324 462.511 609.676C463.33 609.017 463.949 608.108 464.369 606.949C464.801 605.778 465.017 604.432 465.017 602.909C465.017 601.398 464.807 600.068 464.386 598.92C463.966 597.773 463.347 596.875 462.528 596.227C461.71 595.58 460.705 595.256 459.511 595.256C458.33 595.256 457.33 595.568 456.511 596.193C455.705 596.818 455.085 597.705 454.653 598.852C454.222 600 454.006 601.352 454.006 602.909ZM489.102 616.511C486.455 616.511 484.165 615.949 482.233 614.824C480.313 613.687 478.83 612.108 477.784 610.085C476.739 608.051 476.216 605.693 476.216 603.011C476.216 600.307 476.739 597.943 477.784 595.92C478.83 593.886 480.313 592.307 482.233 591.182C484.165 590.045 486.455 589.477 489.102 589.477C491.75 589.477 494.034 590.045 495.955 591.182C497.886 592.307 499.375 593.886 500.42 595.92C501.466 597.943 501.989 600.307 501.989 603.011C501.989 605.693 501.466 608.051 500.42 610.085C499.375 612.108 497.886 613.687 495.955 614.824C494.034 615.949 491.75 616.511 489.102 616.511ZM489.136 610.886C490.341 610.886 491.347 610.545 492.153 609.864C492.96 609.17 493.568 608.227 493.977 607.034C494.398 605.841 494.608 604.483 494.608 602.96C494.608 601.438 494.398 600.08 493.977 598.886C493.568 597.693 492.96 596.75 492.153 596.057C491.347 595.364 490.341 595.017 489.136 595.017C487.92 595.017 486.898 595.364 486.068 596.057C485.25 596.75 484.631 597.693 484.21 598.886C483.801 600.08 483.597 601.438 483.597 602.96C483.597 604.483 483.801 605.841 484.21 607.034C484.631 608.227 485.25 609.17 486.068 609.864C486.898 610.545 487.92 610.886 489.136 610.886ZM513.972 581.091V616H506.71V581.091H513.972ZM519.788 616V589.818H527.05V616H519.788ZM523.436 586.443C522.357 586.443 521.43 586.085 520.658 585.369C519.896 584.642 519.516 583.773 519.516 582.761C519.516 581.761 519.896 580.903 520.658 580.188C521.43 579.46 522.357 579.097 523.436 579.097C524.516 579.097 525.436 579.46 526.197 580.188C526.97 580.903 527.357 581.761 527.357 582.761C527.357 583.773 526.97 584.642 526.197 585.369C525.436 586.085 524.516 586.443 523.436 586.443ZM544.696 616.511C542.014 616.511 539.707 615.943 537.776 614.807C535.855 613.659 534.378 612.068 533.344 610.034C532.321 608 531.81 605.659 531.81 603.011C531.81 600.33 532.327 597.977 533.361 595.955C534.406 593.92 535.889 592.335 537.81 591.199C539.73 590.051 542.014 589.477 544.662 589.477C546.946 589.477 548.946 589.892 550.662 590.722C552.378 591.551 553.736 592.716 554.736 594.216C555.736 595.716 556.287 597.477 556.389 599.5H549.537C549.344 598.193 548.832 597.142 548.003 596.347C547.185 595.54 546.111 595.136 544.781 595.136C543.656 595.136 542.673 595.443 541.832 596.057C541.003 596.659 540.355 597.54 539.889 598.699C539.423 599.858 539.19 601.261 539.19 602.909C539.19 604.58 539.418 606 539.872 607.17C540.338 608.341 540.991 609.233 541.832 609.847C542.673 610.46 543.656 610.767 544.781 610.767C545.611 610.767 546.355 610.597 547.014 610.256C547.685 609.915 548.236 609.42 548.668 608.773C549.111 608.114 549.401 607.324 549.537 606.403H556.389C556.276 608.403 555.73 610.165 554.753 611.688C553.787 613.199 552.452 614.381 550.747 615.233C549.043 616.085 547.026 616.511 544.696 616.511ZM565.521 625.818C564.601 625.818 563.737 625.744 562.93 625.597C562.135 625.46 561.476 625.284 560.953 625.068L562.589 619.648C563.442 619.909 564.209 620.051 564.891 620.074C565.584 620.097 566.18 619.938 566.68 619.597C567.192 619.256 567.607 618.676 567.925 617.858L568.351 616.75L558.959 589.818H566.595L572.016 609.045H572.288L577.76 589.818H585.447L575.271 618.83C574.783 620.239 574.118 621.466 573.277 622.511C572.447 623.568 571.396 624.381 570.124 624.949C568.851 625.528 567.317 625.818 565.521 625.818ZM591.767 616.443C590.642 616.443 589.676 616.045 588.869 615.25C588.074 614.443 587.676 613.477 587.676 612.352C587.676 611.239 588.074 610.284 588.869 609.489C589.676 608.693 590.642 608.295 591.767 608.295C592.858 608.295 593.813 608.693 594.631 609.489C595.449 610.284 595.858 611.239 595.858 612.352C595.858 613.102 595.665 613.79 595.278 614.415C594.903 615.028 594.409 615.523 593.795 615.898C593.182 616.261 592.506 616.443 591.767 616.443Z" fill="white"/>
</svg>
