<svg width="797" height="1185" viewBox="0 0 797 1185" fill="none" xmlns="http://www.w3.org/2000/svg">
<path fill-rule="evenodd" clip-rule="evenodd" d="M252.503 128.998C522.866 -74.7357 898.506 -32.3878 1091.36 223.545C1284.24 479.5 1221.39 852.252 951.033 1055.98C680.684 1259.71 305.05 1217.37 112.174 961.418C-80.6854 705.486 -17.8526 332.725 252.503 128.998ZM423.898 76.6628C627.154 4.55233 853.574 48.5325 1002.98 197.387L986.224 207.538C991.958 220.9 989.632 223.102 999.864 236.681C1008.89 248.661 1030.87 244.67 1049.93 269.957C1055.03 276.732 1048.44 302.945 1049.47 305.864L1003.63 296.955L1030.17 332.178L1026.28 334.9L970.577 274.978L959.772 289.637L906.756 253.785L892.804 348.924L921.933 388.939L912.632 413.701L817.299 326.601L811.874 342.978L761.514 329.535L723.974 359.516L697.302 354.694L685.215 369.94L631.453 360.139L628.513 368.126L680.256 398.657L701.524 382.63L693.941 372.567L704.563 364.562C727.339 378.837 726.671 360.724 735.681 372.681C767.214 414.527 735.803 486.43 705.974 521.256C713.588 527.381 718.532 535.483 727.982 528.361C748.008 513.271 735.554 517.452 756.09 499.292C787.293 542.806 774.982 632.132 777.283 680.298L836.389 738.541C849.674 750.848 827.239 791.374 827.828 816.064L852.267 837.022L841.189 854.702C857.905 882.555 853.017 931.113 823.341 953.475L791.466 977.494C764.845 942.167 700.27 911.783 681.46 886.821C665.486 865.622 673.959 854.766 654.171 828.506C635.889 804.245 583.111 789.467 578.324 783.115L547.991 742.861L526.722 758.888C515.114 750.048 514.126 744.725 499.415 755.81L494.1 759.816C470.879 777.314 482.378 784.415 459.157 801.914L437.888 817.941C418.715 832.388 340.853 799.741 335.453 792.574L289.958 732.201C270.323 706.144 274.138 658.798 283.181 634.739L264.234 609.595L270.807 568.544L282.476 556.392C310.996 534.9 296.24 522.365 313.628 509.262L361.472 473.209L388.014 508.431L456.627 490.057L445.394 464.837C473.213 452.165 486.979 457.534 516.344 435.406L526.967 427.402C547.135 412.203 529.13 386.055 514.1 366.109L474.524 402.176L427.217 377.929L412.298 396.446C425.905 407.623 423.434 400.58 432.12 412.107C437.236 418.896 431.9 424.1 429.065 430.187L377.309 399.819L317.537 402.884L315.961 411.736L374.985 419.914C379.585 435.337 405.277 470.525 368.325 460.168L379.743 439.144L304.012 428.806L285.292 457.981L277.174 500.528C288.6 521.262 290.308 534.736 269.621 550.325C255.851 560.701 261.621 551.066 239.245 565.325L201.334 515.015L249.163 478.974L208.412 457.144L205.168 464.792L197.579 454.721L249.703 362.29C240.284 352.841 242.762 359.844 234.087 348.332C233.57 347.645 231.792 334.426 231.808 334.248L260.794 330.916L239.668 312.878L213.225 342.266L187.632 320.274C202.976 289.504 224.558 205.634 241.754 192.675L257.708 180.654C274.498 168.001 331.292 149.793 345.736 153.741L300.006 181.79L350.245 182.621L345.35 169.809L364.354 145.885L354.096 131.675L364.742 123.653L376.111 138.74L423.898 76.6628ZM1103.32 337.496C1106.88 344.772 1110.27 352.085 1113.47 359.46L1098.79 345.069L1103.32 337.496ZM1131.01 406.085C1132.37 410.333 1133.72 414.613 1134.97 418.896L1131.07 421.839L1123.47 411.76L1131.01 406.085ZM386.308 1130.26C326.204 1110.59 269.683 1080.46 219.618 1040.3L335.511 1014.69L354.305 1038.72C361.047 1047.66 359.259 1078.86 359.594 1089.95L386.308 1130.26Z" fill="#D1A517" fill-opacity="0.4"/>
</svg>
