<svg width="616" height="635" viewBox="0 0 616 635" fill="none" xmlns="http://www.w3.org/2000/svg">
<g clip-path="url(#clip0_53_17)">
<path fill-rule="evenodd" clip-rule="evenodd" d="M390.698 340.484C452.087 294.207 539.74 305.853 586.571 366.595C633.34 427.336 621.57 514.066 560.182 560.404C498.794 606.68 411.14 595.035 364.309 534.293C352.23 518.602 344.053 501.195 339.655 483.174L251.383 494.023C242.71 495.188 234.781 489.181 233.604 480.6C232.427 472.019 238.498 464.174 247.17 463.009L335.753 452.16C335.195 409.868 354.212 368.004 390.698 340.484ZM251.444 13.7909C317.726 -18.6945 398.132 8.15194 430.963 73.7357C463.794 139.319 436.662 218.878 370.38 251.363C318.903 276.555 259.002 266.074 219.419 229.42L156.11 284.646C149.606 290.407 139.632 289.856 133.81 283.42C127.987 276.984 128.544 267.116 135.048 261.354L199.038 205.516C196.065 201.042 193.339 196.322 190.862 191.419C158.03 125.835 185.163 46.2763 251.444 13.7909ZM-118.619 452.896C-132.619 459.209 -136.769 474.9 -134.229 491.633C-133.053 499.295 -130.513 507.017 -126.982 514.434C-123.389 521.85 -118.805 528.654 -113.354 534.293C-100.903 547.287 -84.2393 553.907 -67.0184 545.326C-65.6556 544.713 -64.2308 544.59 -62.9919 545.019C-62.6822 544.897 -62.4964 544.713 -62.0627 544.59C-57.6646 542.568 -53.7001 540.729 -50.1072 539.013C-46.0188 537.174 -42.1782 535.519 -38.5234 533.925C-35.6739 532.761 -32.3907 534.109 -31.2757 536.806C-31.1518 536.99 -31.0899 537.235 -31.0899 537.419L-28.4882 544.284C-21.798 562.059 -15.3557 579.282 -7.9222 592.828C-7.79829 593.012 -6.86913 594.973 -5.81604 596.812C-1.29401 605.393 3.66165 614.648 8.98898 619.736C13.6969 624.149 19.4578 624.884 27.263 617.039C28.6877 615.323 30.1125 613.668 31.5372 612.074C36.1212 606.925 40.6432 601.838 41.6963 595.035C40.2716 593.564 37.8557 592.951 35.4398 592.276C27.3869 590.07 19.4578 587.986 19.21 571.866V569.537C19.21 564.817 19.0861 562.427 18.7764 561.507C18.5906 560.956 17.2278 560.097 14.688 558.32L13.6969 557.707C8.67926 554.213 6.20143 548.636 5.45808 542.384C4.5289 534.967 5.82976 526.509 7.50229 520.379C7.99785 518.418 9.48454 517.008 11.4049 516.457C67.0321 501.011 102.961 506.037 131.641 510.143C132.88 510.327 134.119 510.45 135.234 510.634C107.173 488.875 81.7752 453.692 62.6339 416.549C42.3777 377.382 29.0594 335.948 26.8293 305.976C8.86508 341.894 -23.4086 399.448 -112.734 446.46C-112.858 446.46 -112.92 446.582 -113.044 446.582L-113.787 446.889C-114.717 447.318 -114.84 447.257 -115.026 447.502C-115.026 447.808 -114.779 447.808 -115.026 448.36C-115.026 448.482 -114.964 448.115 -115.77 450.015C-116.389 451.302 -117.38 452.221 -118.495 452.773L-118.619 452.896ZM114.606 413.178C116.465 426.662 106.43 452.712 98.2527 454.244C116.341 479.865 137.031 501.44 158.712 512.963C159.951 512.902 160.942 512.902 161.995 512.718C163.915 512.35 165.712 511.676 167.632 510.082C171.473 504.934 173.331 497.578 173.641 488.507C174.322 460.68 159.393 419.123 138.517 380.018C117.704 340.852 91.0051 304.382 68.3949 286.73C60.0942 280.294 52.5368 276.494 46.59 276.432C45.0414 276.432 44.1741 276.432 43.7405 276.739C43.3069 276.984 42.5636 277.781 41.5105 279.129C41.0149 279.742 40.4574 280.478 39.8999 281.336C39.8379 281.581 39.8379 281.642 39.776 281.887C33.1478 302.114 41.8821 342.506 59.9083 384.676C68.4568 379.221 109.96 378.424 114.73 413.116L114.606 413.178ZM159.641 523.934C158.464 524.302 157.287 524.364 155.986 523.873C154.995 523.812 153.88 523.751 152.765 523.628C145.393 523.076 138.022 522.096 130.093 520.992C103.084 517.192 69.1383 512.35 17.4755 526.202C16.4844 530.861 15.8649 536.316 16.4225 541.035C16.918 544.468 17.9711 547.287 20.0153 548.758L21.0064 549.371C25.4046 552.374 27.6346 553.845 29.0594 557.278C30.3602 560.159 30.3602 563.346 30.4222 569.475V571.804C30.4841 579.589 34.5106 580.692 38.4751 581.795C43.6786 583.205 48.8201 584.553 52.1651 590.928C52.7226 591.847 52.9704 592.889 52.9704 594.115C52.351 605.638 46.0945 612.626 39.8379 619.491C38.4751 620.962 37.0504 622.616 35.8115 624.088L35.5017 624.455C21.8117 638.675 10.7854 636.714 1.36966 627.888C-5.38242 621.575 -10.6478 611.522 -15.7274 602.206C-16.161 601.409 -16.5946 600.551 -17.8335 598.344C-25.4528 584.247 -32.081 566.595 -38.957 548.452L-39.6384 546.552C-41.6207 547.471 -43.7268 548.329 -45.7091 549.249C-49.7975 551.087 -53.762 552.865 -57.4788 554.704C-58.0363 554.887 -58.284 555.133 -58.5318 555.255C-61.0097 556.604 -62.0008 557.278 -64.4786 556.481C-86.0977 566.104 -106.54 557.83 -121.593 542.077C-127.787 535.58 -133.114 527.735 -137.141 519.399C-141.167 511.063 -143.955 502.114 -145.318 493.41C-148.415 472.632 -143.026 453.079 -125.309 444.069C-124.628 442.414 -124.194 441.618 -123.141 440.453C-121.964 439.227 -120.911 438.737 -118.867 437.572L-118.124 437.266C-118 437.266 -117.938 437.143 -117.938 437.143C-26.1342 388.905 3.22803 329.083 20.0153 295.004C24.6612 285.504 28.378 277.965 32.4664 272.694C34.4487 270.119 35.9973 268.464 38.2893 267.3C40.5813 266.135 43.0591 265.645 46.5281 265.767C55.2005 265.89 64.802 270.548 75.0231 278.455C98.8722 297.027 126.624 334.784 148.057 375.176C169.614 415.691 185.163 459.147 184.419 488.936C184.109 500.52 181.508 510.266 175.809 517.315C175.623 517.56 175.437 517.805 175.127 517.928C171.349 521.299 167.632 522.892 163.605 523.567C162.181 523.751 160.756 523.934 159.455 523.996L159.641 523.934ZM271.577 131.351L308.063 97.7626C307.319 96.4142 306.762 94.9431 306.328 93.4721C302.24 80.0489 309.983 65.8902 323.549 61.8448C337.115 57.7994 351.425 65.4611 355.513 78.8843C359.602 92.3075 351.858 106.466 338.292 110.512C332.903 112.105 327.452 111.86 322.496 110.205L284.152 145.51C284.276 145.939 284.462 146.368 284.585 146.797C284.833 147.533 285.019 148.268 285.143 149.065L332.655 157.033C335.814 151.701 340.956 147.41 347.46 145.51C361.026 141.465 375.336 149.126 379.424 162.55C383.513 175.973 375.769 190.132 362.203 194.177C348.637 198.222 334.328 190.561 330.239 177.137C330.115 176.647 329.93 176.095 329.806 175.605L281.736 167.576C278.577 172.663 273.559 176.647 267.303 178.486C253.736 182.531 239.427 174.87 235.339 161.446C231.25 148.023 238.993 133.864 252.559 129.819C259.188 127.735 265.94 128.532 271.577 131.351ZM503.006 407.232L534.412 403.248C543.952 402.022 552.81 408.764 554.049 418.265L558.014 448.666C559.253 458.167 552.439 466.87 542.837 468.096L529.333 469.813C532.244 477.168 535.466 483.665 543.456 488.997C529.333 487.281 517.873 481.642 508.767 472.387L506.413 472.693C505.484 472.816 504.555 472.877 503.563 472.877C508.209 468.096 511.121 462.396 510.377 456.757L508.705 444.069L507.218 432.608L504.74 413.668C504.431 411.4 503.811 409.255 503.006 407.232ZM415.786 404.719L464.414 398.528C477.67 396.874 489.873 406.19 491.608 419.307L496.068 453.692C496.997 460.68 492.847 467.422 486.838 472.509C481.263 477.229 473.829 480.723 467.635 481.52L467.139 481.581C463.485 487.526 458.963 492.797 453.635 497.333C447.75 502.359 440.812 506.466 432.883 509.53C431.397 510.082 429.662 509.898 428.361 508.734C426.503 507.14 426.317 504.382 427.928 502.543C431.087 498.927 433.007 495.372 434.308 491.756C434.99 489.733 435.547 487.649 435.919 485.504L426.441 486.729C419.813 487.588 413.432 485.687 408.539 481.887C403.645 478.148 400.176 472.509 399.309 465.951L394.849 431.566C393.114 418.51 402.53 406.435 415.786 404.719Z" fill="#D1A517"/>
</g>
<defs>
<clipPath id="clip0_53_17">
<rect width="761.189" height="634.814" fill="white" transform="translate(-146)"/>
</clipPath>
</defs>
</svg>
