<svg width="100%" height="auto" viewBox="0 0 1440 156" fill="none" xmlns="http://www.w3.org/2000/svg">
<path d="M0 222L21.8 222.8C43.7 223.7 87.3 225.3 131 222.5C174.7 219.7 218.3 212.3 262 207.8C305.7 203.3 349.3 201.7 393 207.7C436.7 213.7 480.3 227.3 524 227.7C567.7 228 611.3 215 654.8 208.3C698.3 201.7 741.7 201.3 785.2 211.2C828.7 221 872.3 241 916 245.3C959.7 249.7 1003.3 238.3 1047 232.7C1090.7 227 1134.3 227 1178 231.8C1221.7 236.7 1265.3 246.3 1309 244.7C1352.7 243 1396.3 230 1418.2 223.5L1440 217L1440 301L1418.2 301C1396.3 301 1352.7 301 1309 301C1265.3 301 1221.7 301 1178 301C1134.3 301 1090.7 301 1047 301C1003.3 301 959.7 301 916 301C872.3 301 828.7 301 785.2 301C741.7 301 698.3 301 654.8 301C611.3 301 567.7 301 524 301C480.3 301 436.7 301 393 301C349.3 301 305.7 301 262 301C218.3 301 174.7 301 131 301C87.3 301 43.7 301 21.8 301L0 301Z" fill="#2C5CB9" stroke-linecap="round" stroke-linejoin="miter">
</path>
</svg>